<?xml version="1.0" encoding="UTF-8"?>
<svg id="katman_1" xmlns="http://www.w3.org/2000/svg" version="1.1" viewBox="0 0 2294.1 264.691">
  <!-- Generator: Adobe Illustrator 29.8.1, SVG Export Plug-In . SVG Version: 2.1.1 Build 2)  -->
  <path d="M25.418,210.117c-.787-.818-1.188-1.433-1.844-2.356C7.22,184.751-.546,156.549,0,128.372,1.237,64.525,50.958,9.299,114.236,1.182c35.166-4.511,68.831,3.89,97.076,25.161,1.521,1.145,2.996,1.995,4.58,3.281,27.052,21.964,44.607,54.734,47.926,89.481.203,2.125.29,4.332.425,6.467.254,4.024.465,7.365.215,11.429-.54,8.789-1.465,17.583-3.511,26.211-12.45,52.511-56.658,93.06-110.318,100.308-10.969,1.482-22.489,1.48-33.569.431-21.089-2.402-41.706-10.114-59.196-21.993-1.933-1.313-7.379-5-8.543-6.64-.034-.048.02-.267-.102-.429-.055-.074-1.33-1.144-1.41-1.189-.205-.116-.412-.134-.641-.105-.075-.07-.142-.148-.215-.215l-.215-.215c-.09-.075-.151-.161-.215-.215-.239-.737-1.135-1.536-1.717-2.052-3.368-2.986-6.6-6.186-9.697-9.471-.981-1.04-1.668-1.643-2.799-2.478-1.158-.855-2.343-2.606-3.015-3.877-.661-1.251-1.574-2.132-2.275-3.208-.561-.861-.968-1.089-1.602-1.746ZM170.519,8.787c-.461-.34-8.387-2.322-9.591-2.589-11.941-2.645-24.216-3.553-36.356-2.863C69.074,6.489,21.756,45.128,7.387,98.713c-14.351,53.516,6.562,109.971,51.985,141.09,49.245,33.737,115.308,28.839,159.318-11.164,42.169-38.33,54.71-99.078,30.514-151.133-14.074-30.278-41.289-55.503-72.826-66.729-1.537-.547-4.916-1.294-5.859-1.99Z" fill="#b40a0c"/>
  <path d="M32.309,218.948c1.131.835,1.818,1.438,2.799,2.478,3.097,3.284,6.329,6.485,9.697,9.471.582.516,1.478,1.315,1.717,2.052-1.072-.914-2.237-1.776-3.348-2.795-3.304-3.03-7.13-6.713-10.116-10.123-.289-.33-.506-.72-.748-1.082Z" fill="#262221"/>
  <path d="M25.418,210.117c.633.657,1.041.885,1.602,1.746.701,1.076,1.613,1.957,2.275,3.208-.522.065-.547-.349-.772-.628-.97-1.205-2.088-2.347-2.676-3.749-.093-.221-.584-.07-.428-.576Z" fill="#262221"/>
  <path d="M49.322,235.317c-.571.099-.522-.472-.788-.658-.654-.46-.737-.479-1.366-1.065.229-.028.436-.011.641.105.08.045,1.355,1.115,1.41,1.189.122.162.068.381.102.429Z" fill="#262221"/>
  <path d="M46.953,233.378c-.077-.071-.15-.16-.215-.215l.215.215Z" fill="#262221"/>
  <path d="M170.519,8.787c.943.696,4.321,1.443,5.859,1.99,31.537,11.226,58.752,36.451,72.826,66.729,24.197,52.055,11.655,112.803-30.514,151.133-44.01,40.003-110.073,44.901-159.318,11.164C13.949,208.684-6.965,152.229,7.387,98.713,21.756,45.128,69.074,6.489,124.571,3.335c12.14-.69,24.415.219,36.356,2.863,1.203.267,9.13,2.248,9.591,2.589ZM128.568,22.518l-.24-9.991c-.233-.805-2.502-.059-3.206-.132l.431,13.354h8.614c-.075-.531.231-3.231-.323-3.231h-5.276ZM132.875,12.179v3.015l2.811.096.179.252-.406,10.206h3.015l.431-10.123h3.23l.204-3.004c-1.437-.404-2.935-.152-4.41-.22-.368-.017-.696-.215-1.063-.229-1.326-.048-2.666.049-3.991.007ZM145.366,26.395l1.5-13.013c-.159-.609-2.267-.175-2.881-.568-.43.03-.309,1.867-.355,2.26-.386,3.304-.928,6.623-1.265,9.933-.035.347-.017.696-.024,1.044.072.489,2.517.321,3.025.344ZM124.692,25.748l-7.644-12.277c-.411-.412-1.789-.294-2.26.117-.129.112-.163.328-.29.469-.081.089-.271.045-.329.087-.025.018.158.333.1.621-.78,3.862-2.965,8.29-3.965,12.207-.06.236-.045.476-.038.715,1.902-.501,3.617.585,3.673-2.141l6.749-.855c.428.13.359.961.662,1.278.593.62,2.477-.418,3.343-.221ZM150.983,24.69c2.266.126,4.028.717,5.997-.787,3.886-2.967,2.311-8.299-2.301-9.517-.688-.182-4.42-.931-4.773-.681l-2.385,13.116,2.886.422c.629-.181.139-1.98.576-2.554ZM94.329,24.887c.143-.157.865.424,1.06.554,2.12,1.419,4.198,3.001,6.188,4.595l2.443-.953-4.414-12.594-2.465,1.2c.169.887,2.249,6.219,1.925,6.551l-.763-.205-6.487-4.728-2.216.635c-.04.305-.024.611.037.914.676,3.363,2.69,7.681,3.731,11.134.065.214.121.425.099.651l2.796-.867c.28-.29-2.365-6.414-1.935-6.887ZM170.13,32.209l-1.981-13.849c.008-.758-1.708-1.338-2.182-1.207-.21.058-1.388,1.309-1.652,1.594-1.953,2.106-3.761,4.432-5.7,6.576-.509.562-2.135,1.887-2.38,2.358-.118.226-.122.408-.103.652l3.107.856c.735-.747.357-1.47,1.695-1.243,1.657.282,3.785,1.466,5.529,1.794.666.399.389,1.149.447,1.814l3.22.655ZM180.035,36.733c.147-1.348-.391-2.609-.188-3.958.11-.365,1.558-.856,2.022-1.208,1.312-.996,2.226-3.171,1.991-4.799-.591-4.087-4.385-4.728-7.575-6.182l-5.281,12.138.334.324c.963.087,1.926,1.535,2.499.393.58-1.154.347-2.413,2.046-1.494,1.384.75.828,2.174,1.235,3.503.431.234,2.667,1.533,2.917,1.282ZM71.072,38.026c.46-.035.875.169,1.291.323,1.64.609,3.281,1.322,4.889,2.014.829.186,2.55-1.272,3.363-1.732.413-.234,1.766-.678,1.847-.952l.122-1.601c.657-.305,1.287-.788,1.907-1.108.591-.305,3.281-1.635,3.71-1.684,1.031-.119,1.026.691,1.532.838.673.195,1.125-.373,1.643-.667.255-.145,1.163-.215,1.014-.706l-11.053-9.13-1.763,1.046-.105.326c.138,3.557-.177,7.236-.005,10.778.024.486.622,2.03-.12,2.242-.399.114-.991-.164-1.38-.311-.756-.286-4.629-1.83-4.853-2.255-.272-.516.096-.889.122-1.399.083-1.587.083-3.17.201-4.752.04-.535.344-1.045.221-1.608-.367-.077-.489.04-.758.21-.309.195-2.19,1.513-2.231,1.646l-.457,6.543c-.389.077-.529-.192-.74-.443-.859-1.022-1.721-2.652-2.282-3.858-.316-.333-2.208,1.114-2.576,1.397l6.893,11.09c.552.043.769-.578,1.209-.835.336-.196,1.262-.261,1.148-.768-.823-1.31-1.77-2.587-2.532-3.933-.137-.242-.325-.394-.258-.71ZM191.449,34.58l-.672-6.976-1.781-1.199c-.24.179-.487.402-.662.643-1.399,1.941-2.907,4.7-4.17,6.814-.542.907-1.78,2.66-2.099,3.5-.086.225-.122.422-.093.661.84-.236,1.962,1.431,2.595.981.995-1.807,2.294-3.525,3.213-5.368.131-.262.412-.105.653-.136.08.932.17,4.403.851,4.856.757.504,3.426-1.007,4.379-1.242.303-.075.261-.274.581.155l-3.231,5.605c.007.163-.061.382.029.511.061.087,1.736,1.044,1.838,1.075.127.039.25.055.38.017.601-.176,5.657-9.46,6.631-10.607.641-1.06-1.213-1.776-2.084-1.659-1.789.55-3.893,1.883-5.645,2.329-.237.06-.476.044-.715.04ZM178.477,44.541c-.599-.551-6.911-3.313-8.132-3.823-35.164-14.686-76.772-7.627-104.662,18.301-38.974,36.232-43.67,95.21-9.684,136.558,36.893,44.884,104.581,48.511,146.008,7.545,37.026-36.613,39.07-95.035,5.809-134.836-6.624-7.927-18.078-18.016-27.36-22.604-1.102-.545-.927-.175-1.979-1.141ZM59.386,37.43c-4.023.562-6.76,4.966-5.71,8.839,1.362,5.023,7.463,6.921,11.473,3.602,5.413-4.48,1.417-13.445-5.763-12.441ZM205.446,54.179l3.447-13.695c.055-.693-.992-1.465-1.627-1.603l-13.018,6.038c-.06.783.904.849,1.288,1.187.339.299.604,1.161,1.362.94.833-.243.944-1.204,2.196.025l3.997,3.325c.587.701-.133,1.101-.207,1.556-.062.382,1.623,1.707,2.023,2.013.187.143.213.295.539.214ZM213.845,51.809c.003-.727.856-.983,1.297-1.394.331-.308,2.323-2.217,2.36-2.38.091-.398-.498-.498-.741-.758-.355-.379-.811-1.463-1.487-1.265l-9.193,8.72c.001.199-.018.408.043.599.111.344,1.56,1.754,1.985,1.629.331-.097,1.913-1.942,2.397-2.352l1.4-.86-1.088,6.35,2.275,2.695c.447.117.403-.707.475-1.03.217-.975,1.015-6.655,1.382-6.911l7.94-1.104c.089-.369-.142-.429-.323-.646-.369-.444-1.945-2.063-2.4-2.111-.852.048-6.016,1.101-6.321.818ZM40.134,55.104c-.26.329-.813.97-.71,1.321.037.127,1.905,1.641,2.037,1.643.509.007,1.517-2.18,2.34-1.933l7.371,6.435,2.018-1.843c.059-.263-1.393-1.633-1.709-1.924-.663-.611-1.597-1.219-2.267-1.824-1.201-1.085-2.361-2.252-3.544-3.359-.076-.339,1.846-1.905,1.926-2.55-.424-.239-1.584-1.532-1.856-1.612-.482-.142-1.35.889-1.699,1.269-1.219,1.325-2.85,3.04-3.906,4.377ZM35.959,59.126l1.51-2.06-1.412-1.587c-.354-.079-2.08,2.1-2.009,2.443.135.327,1.753,1.4,1.91,1.203ZM48.649,65.403l-10.006-7.771c-.304-.067-1.963,1.82-2.017,2.059-.066.291.354.537.529.733l9.715,7.516.5.009c.027-.782,1.757-1.854,1.279-2.547ZM45.43,69.703l-11.067-7.123-1.622,2.468,3.995,2.693.105.327-2.719,4.197c-.432.099-3.247-1.993-3.852-2.367-.242-.15-.288-.253-.65-.212-.125.014-.969,1.878-1.31,2.141l-.093.661c.783-.111,1.121.509,1.648.83,2.826,1.722,5.519,3.775,8.405,5.378.345.192.845.523,1.238.483l1.415-2.268c-.606-.566-3.919-2.282-4.076-2.836-.063-.223.005-.325.091-.507.581-1.233,2.027-2.517,2.491-3.867.31-.356,1.523.828,1.849,1.032.41.258,2.517,1.545,2.763,1.543l.111-.003c-.134-.656,1.684-2.214,1.278-2.569ZM223.91,74.262c.989,1.097-.708,1.645-.566,2.384.044.227,1.053,1.751,1.266,1.98.188.202.371.495.652.219l7.065-11.675c.254-.852-.537-2.313-1.561-2.222l-6.061,1.063-1.266.026-6.366,1.065,1.498,2.485c.606.406,1.558-.368,2.115.151.885,1.314,1.709,2.873,2.662,4.123.208.273.459.287.561.4ZM234.303,84.548l.095-.874,3.744-7.026c.305-.414-.686-2.132-.956-2.21l-11.71,5.592.027.503,1.16,2.081,5.476-2.706.871-.098-.117.852-3.506,6.62c-.282.93.659,1.538.609,2.436.242.034.432-.017.658-.096,1.13-.398,2.608-1.342,3.715-1.884,2.482-1.216,4.955-2.461,7.455-3.635.117-.87-.589-1.378-.837-2.262-.072-.256.128-.372-.333-.312l-6.351,3.019ZM33.587,84.533c-.247.251-1.709-.371-1.905-.763-.277-.904,1.7-3.208,1.713-4.072.008-.53-1.909-1.322-2.46-1.383-.849.547-1.494,3.369-2.061,3.769-.446.315-1.758-.344-1.749-1.089.014-1.152,2.165-3.815,2.178-4.743.01-.694-1.825-.903-2.3-1.376l-.299.075c-.878,1.818-1.969,3.534-2.833,5.357-.177.372-1.23,2.586-1.036,2.733l12.059,5.601,3.67-7.651c.026-.206-.087-.303-.222-.428-.273-.254-2.324-1.201-2.575-.957l-2.179,4.928ZM32.955,95.102v-3.123c0-.12-.618-1.399-.763-1.606-1.675-2.388-4.67-2.158-6.437.005-.605.74-1.785,3.5-2.926,3.129-.959-.312-1.011-1.262-.817-2.135.182-.818,1.419-1.516,1.879-2.221l-.962-2.458c-1.98.37-4.131,3.35-4.202,5.286-.105,2.868,2.985,5.634,5.832,4.308,1.745-.813,2.116-2.189,3.128-3.548,1.383-1.858,2.857-.434,2.085,1.44-.356.865-1.44,1.937-2.401,2.014l.415,3c.189.207,1.992-.624,2.303-.819.503-.316,1.031-1.07,1.467-1.129.856-.115,2.152.954,3.117.868.256-.642.389-2.491.974-2.797.384-.201.348.27.311.526-.14.95-.765,1.738-.619,2.688.496.045,1.295.649,1.714.352,1.196-1.658,1.977-5.3-.767-5.715-1.676-.253-2.242.22-2.86,1.654-.127.295.003.344-.473.278ZM245.685,94.641c.194-.271-.051-1.814-.284-2.131l-.258-.172-14.285-1.543.871,3.005c.512.083,1.223-.184,1.61.221.448.469,1.494,3.621,1.777,4.469.165.493.582,1.41.456,1.856-.161.567-1.084.42-1.069,1.324.006.378.726,2.4.991,2.475.676.19.789-.568,1.079-.848,2.811-2.712,5.577-5.715,8.49-8.312.199-.178.601-.314.622-.343ZM28.003,110.395c-.314-.308-4.149-.826-5.034-1.32-.873-.487-2.419-2.022-3.258-2.772-1.168-1.045-2.184-2.278-3.436-3.24-1.116-.857-1.081,1.223-1.247,2-.082.386-.302.72-.363,1.11l4.077,3.681-5.126,1.874-.687,3.404c.31.014.615.016.923-.045,2.714-.541,5.724-2.078,8.458-2.754l4.831,1.078.862-3.016ZM248.727,102.858l-13.131,2.585c.916,4.006.765,8.681,5.323,10.287,4.499,1.585,8.603-1.554,9.118-6.09l-1.31-6.781ZM13.633,129.504c5.091,5.091,13.923.54,12.334-6.629-1.498-6.76-11.29-7.45-13.693-.75-.65,1.814-.545,3.28.115,5.069.221.599.821,1.888,1.243,2.31ZM244.586,117.556c-6.393.761-8.61,8.624-3.613,12.766,4.198,3.48,10.964.674,11.425-4.738.389-4.565-3.11-8.588-7.812-8.029ZM10.775,120.301h-2.37c-.028.608.04,1.229.008,1.838-.019.375-.398.836-.015,1.077.449.282,1.591.007,2.161.101l.215-3.016ZM10.345,124.178h-2.155s-.199,3.001-.199,3.001c.463.195,1.963.47,2.257.027l.096-3.028ZM11.852,132.363v3.554c.859,1.123,4.658,2.648,5.167,3.663.212.422-.353.318-.536.322-1.49.029-2.944-.039-4.416.215.118.61-.305,2.804.344,2.996l13.223-.627v-2.8h-5.384c-.13-.523.12-.35.28-.476,1.602-1.265,3.213-2.521,4.786-3.826.376-1.235-.285-2.426-.114-3.667l-6.386,4.921c-.449.05-4.768-3.088-5.602-3.591-.212-.128-1.262-.793-1.362-.684ZM242.055,137.101l9.999.423c.544-.113.303-1.729.33-2.26.015-.299.244-.694.215-.84-.103-.516-1.334-.298-1.809-.351-3.273-.369-6.623-.244-9.926-.411-.59-.03-1.213-.459-1.836-.126-.662,1.826-.335,3.889-.412,5.834-.033.828-.444,1.834-.198,2.769l.179.252,2.811.203c-.957.687-2.004,1.014-2.799,1.939-2.751,3.202-1.437,8.228,2.581,9.48,1.988.619,5.757,1.183,7.877,1.383.456.043.921.023,1.375.002l.457-2.68c.006-.192-.069-.329-.226-.436-.451-.305-4.006-.817-4.862-.952-1.61-.253-3.994.096-4.878-1.582-1.12-2.125.383-3.663,2.521-3.83l7.951,1.301c.244-.125.3-.274.34-.533.149-.965.267-1.93.217-2.907-3.316-.326-6.571-1.128-9.918-1.173-.157-.105-.185-.265-.208-.438-.226-1.674.212-3.412.219-5.067ZM25.845,143.782l-3.011.213c.29,1.847.782,3.697.628,5.581l-9.885,1.53.093,2.593c.255.382,1.47.161,1.937.19l11.326-1.81.199-.238-1.287-8.059ZM27.353,153.688l-2.797.429c-.25.948,1.524,5.627,1.067,6.02l-1.924.439c-.195-.195-.79-3.484-1.116-4.161-.073-.152-.134-.285-.304-.347l-2.675.635c.049.69,1.392,4.492,1.077,4.735-.546-.046-1.045.181-1.567.277-.192.035-.295.25-.48-.052l-1.398-5.608c-1.092.549-3.195-.075-2.786,1.602l1.943,7.643c.293.206,2.504-.35,3.046-.473,3.296-.744,6.544-1.801,9.843-2.54.37-.382-1.892-7.475-1.927-8.599ZM248.086,164.456l-12.794-3.643-.307.341c-.317,1.581-.979,3.056-1.44,4.59-.2.665-.882,2.601-.73,3.105.131.435,2.662.979,2.977.758.426-1.381.723-3.29,1.346-4.576.074-.153.133-.29.309-.35l9.464,2.793c.132.033.222-.023.322-.098.122-.091.971-2.824.852-2.92ZM18.967,168.772c-1.811,5.459,1.752,10.492,7.642,9.905,5.162-.515,7.81-7.27,4.623-11.314-.721-.915-2.29-2.42-3.507-2.22-1.643.27-3.617,1.659-5.323,1.898.036.725,1.736,5.371,2.044,5.373.405-.508,2.355-.777,2.47-1.192.188-.676-1.315-1.778-.29-2.435,1.741-1.117,3.051,1.163,3.113,2.669.087,2.14-2.496,4.701-4.597,4.373-1.946-.304-3.906-2.352-3.833-4.374.022-.609.668-1.177.352-1.625-.189-.268-2.441-1.309-2.694-1.058ZM244.844,174.589l-12.38-4.754c-.191-.022-.324.063-.426.218-.108.165-.951,2.314-.97,2.484-.012.105-.009.209.011.311,2.857,1.097,5.677,2.343,8.549,3.405.616.228,4.094,1.588,4.357,1.332-.07-.606,1.174-2.674.86-2.996ZM244.424,178.024c.701-.01,1.778.964,2.38.55.109-.075.982-1.773,1.032-1.989.265-1.14-1.303-1.216-2.118-1.576l-1.293,3.015ZM233.01,175.44c-2.484.534-4.315,1.662-5.275,4.092-.551,1.395-.667,2.179-.168,3.614.712,2.049,3.092,3.441,5.165,2.46,1.649-.78,3.26-3.918,4.512-4.104.797-.119,1.223.843,1.142,1.571-.149,1.325-1.241,2.114-2.368,2.607l.655,2.683c4.099-.49,6.434-6.573,2.79-9.146-2.186-1.543-4.468-.282-6.021,1.498-.831.952-1.17,2.448-2.776,2.024-.61-1.028-.42-1.87.226-2.852s1.522-.933,2.312-1.564l-.192-2.884ZM35.094,177.609l-.701.023-11.121,5.903,1.199,2.226.406.028,5.341-2.855.798-.17-.17.798-3.674,7.106c-.187.833.636,1.451.848,2.202.226.081.429-.003.64-.079,1.043-.376,2.531-1.265,3.582-1.803,2.361-1.207,4.651-2.57,7.039-3.729l.338-.32-.863-2.222-.521-.018-5.341,2.848-.798.17c-.066-.322.061-.526.17-.798.926-2.313,2.259-4.692,3.451-6.886.288-.969-.409-1.56-.621-2.424ZM228.272,196.117c0-.267.111-.499.25-.72.257-.411,1.731-2.728,1.896-2.844.603-.424,1.602.37,1.929.898l-2.794,4.711c-.002.534,2.004,1.738,2.466,1.603.514-.149,3.603-6.083,4.332-6.883.396-.711-.591-1.115-1.116-1.466-3.028-2.024-6.283-3.747-9.332-5.743-.217-.139-.486-.167-.729-.093-.423.129-4.037,6.649-4.652,7.519.589-.063,2.476,1.643,2.796,1.291.194-.751,2.522-4.599,2.945-4.717.561-.156,1.661.721,1.594,1.376-.018.171-.925,1.607-1.121,1.911-.372.579-1.128,1.096-1.042,1.858l2.581,1.297ZM37.454,192.696c-.557-.393-1.906.8-2.333,1.184-.039,1.052,2.068,2.845,2.152,3.642.076.718-1.565,1.756-1.952,1.516-.125-.078-.211-.236-.308-.35-1.058-1.248-1.822-2.979-2.82-4.294l-2.254,1.407,4.654,6.98.8-.241,10.05-6.754c-.587-.862-4.202-6.85-4.659-6.977-.353-.098-2.039.993-2.029,1.383.018.689,2.745,3.585,2.82,4.534.066.835-1.603,1.684-2.172,1.293-.365-.251-1.518-2.776-1.951-3.324ZM221.814,198.271c-.317-1.073,1.045-3.208-.74-3.007-2.473.279-4.386,1.522-5.473,3.794-1.713,3.58,1.498,7.498,5.287,5.718.99-.465,3.097-2.764,4.003-2.6,1.617.293.848,2.382-.067,3.09-.451.349-1.214.619-1.73.879l.012,2.679c3.327-.098,6.683-3.489,5.494-6.895-.924-2.647-3.412-3.394-5.861-2.196-.851.417-3.045,2.654-3.582,2.595-.432-.048-.875-.554-.966-.977-.365-1.698,2.061-3.295,3.624-3.081ZM44.801,200.638c5.8.81,4.772,9.18-1.175,8.392-1.617-.214-2.799-1.731-3.251-3.21-.115-.375-.025-1.025-.299-1.208-1.706-.16-2.846-1.109-2.583,1.292.209,1.914,1.693,4.098,3.362,5.036,4.704,2.645,10.388-.516,10.631-5.876.044-.972-.459-2.08-.193-2.991.146-.501,1.788-1.207,1.893-1.565.23-.783-1.812-2.421-1.71-2.774.065-.225.363-.399.648-.219.528.334,1.618,1.982,1.854,2.032.458-.04,1.387-.711,1.387-1.168,0-.138-1.108-1.514-1.305-1.723-1.701-1.802-4.269-1.519-4.521,1.093-.102,1.053.839,1.497.859,2.461-.353.083-.501-.069-.763-.205-1.332-.694-2.445-2.241-4.278-1.958-.359.054-.405,2.141-.557,2.592ZM220.72,214.195c.073-.846,1.652-1.297,1.207-2.144l-9.155-8.513c-.166-.161-.265-.111-.438,0-.14.09-1.565,1.518-1.617,1.619-.121.234-.189.441-.005.662.61.454,1.399.995,1.95,1.497,2.123,1.935,4.255,4.213,6.459,6.032.269.222,1.368,1.116,1.6.846ZM68.487,225.839l-3.233-1.396c-.597-.578.023-1.223.167-1.779.9-3.483-.011-6.97-2.223-9.734-.245-.307-1.729-1.857-1.944-1.933-.151-.053-.35-.01-.518-.021-.454,2.05-.795,4.147-.863,6.246-.285.07-.375-.071-.576-.177-2.742-1.446-5.563-2.974-8.794-2.838-.299.013-.399-.084-.306.307.166.698,1.559,2.888,2.045,3.557,1.411,1.943,4.059,3.855,6.456,4.312,1.228.234,3.76-.207,3.759,1.516l-4.091.216c-.183.175.687,1.383.86,1.615,1.204,1.618,3.019,3.367,4.896,4.15,1.923.802,3.729.727,5.771.702.285-.003.554-.183.819-.168.657.036,1.587.727,1.436,1.454l-3.877.648.22.748c3.045,2.769,5.86,4.691,10.211,4.191,1.376-.158,2.749-1.115,4.194-.398v.824c-.097.144-2.826.918-3.28,1.134-.287.137-.424.27-.362.606,1.509.694,2.823,1.787,4.373,2.412,2.265.914,4.044,1.002,6.395.282.944-.289,2.334-1.219,3.166-1.373.522-.097,1.705.301,1.145.946-.491.566-1.843,1.107-2.523,1.569-.739.502-.656.649.148,1.012,2.531,1.143,4.542,1.928,7.417,1.601.505-.057,2.765-.65,3.201-.847.227-.103.196-.385.363-.532.152-.134,2.16-1.335,2.302-1.368,1.127-.255,2.59.073,3.729.176-.919-5.65-6.274-9.222-11.843-8.83-.091.358.08.505.207.761.857,1.73,2.195,3.323,3.236,4.947-.268.436-.395.209-.645.215-.932.02-2.003.078-2.891.314-.159-.077-.239-.188-.302-.351-.28-.725-.418-1.704-.731-2.499-1.703-4.334-5.066-6.101-9.426-7.048.06,2.068,1.262,3.903,2.161,5.699.129.258.296.404.207.762-1.203-.292-2.428-.219-3.661-.214-.138-2.32-.557-4.897-1.841-6.881-.549-.849-2.251-2.31-3.122-2.909-.452-.311-3.171-1.889-3.435-1.625-.159,2.32.936,4.455,1.291,6.676l-3.239-.744c-.166-.105-.186-.256-.211-.435-.16-1.169.114-2.636-.01-3.867-.281-2.788-1.956-4.998-3.969-6.8-.414-.371-1.132-.708-1.519-1.068-.437-.406-.145-.868-1.173-.655-.112,2.329.069,4.601.43,6.893ZM156.133,243.501h4.199c.067,0,.471.521.646.646,3.516,2.532,6.941,2.737,10.874.968.693-.312,1.215-.837,1.939-.969-.424-.694-1.388-.917-2.014-1.323-.429-.278-2.083-1.362-1.087-1.669,1.036-.32,2.324.658,3.257,1.006,2.933,1.094,5.293.928,8.106-.41.412-.196,3.099-1.839,3.15-2.02.222-.785-2.743-1.259-3.23-1.72-.267-.253-.244-.411-.215-.753.754-.633,3.582.524,4.644.63,3.962.397,6.529-1.906,9.209-4.329.213-.192.457-.197.359-.609l-4.091-.863c.935-1.657,2.726-.763,4.21-.851,3.7-.22,6.293-1.988,8.496-4.855.175-.228,1.042-1.442.861-1.615-1.286.03-2.473-.194-3.77-.216-.186-.003-.744.102-.536-.322.12-.245.587-.541.855-.653,1.138-.472,2.97-.436,4.315-.853,1.997-.62,3.684-2.04,4.95-3.664.393-.504,2.347-3.583,1.937-3.984-2.076.046-4.082.722-6.029,1.4l-3.445,1.83c.063-1.912-.091-3.887-.62-5.734-.08-.281-.036-.534-.35-.725-2.568,2.333-4.94,5.73-4.636,9.373.094,1.134.664,2.267.836,3.271.034.201.066.314-.064.501-.15.217-3.218,1.415-3.35,1.283.137-1.664.559-3.153.437-4.852-.029-.407-.183-.816-.23-1.28-.031-.308.136-.38-.313-.328-2.06,1.633-4.297,3.354-5.318,5.881-.847,2.096-.565,4.181-.615,6.384l-3.22.656c.213-1.003.578-1.961.802-2.967.251-1.131.461-2.345.49-3.495-.292-.302-2.966,1.11-3.434,1.411-3.235,2.083-5.244,5.926-4.963,9.79-1.154.038-2.334-.146-3.446.214-.293-.309.961-2.283,1.184-2.8.465-1.08.685-2.272,1.184-3.339-.084-.266-.462-.049-.652-.006-5.187,1.171-8.515,3.972-9.486,9.358l-2.896-.191-.529-.329c.909-1.309,1.879-2.64,2.623-4.052.148-.28.805-1.457.605-1.656-2.524.303-4.828.547-7.042,1.894s-4.18,4.394-4.586,6.936ZM222.401,213.936c-.344.327-1.13.455-.993,1.2.094.51,1.109,1.354,1.572,1.219l1.624-2.018c-.335-.36-.947-1.106-1.426-1.182s-.572.586-.777.781ZM128.943,239.246c-1.917.27-3.414,1.496-3.611,3.495-.155,1.58-.156,4.895,0,6.474.386,3.911,6.913,4.866,8.449,1.115.564-1.376.537-5.558.392-7.158-.247-2.729-2.583-4.3-5.23-3.926ZM139.072,239.236c-2.265.209-3.837,1.37-4.049,3.721-.13,1.441-.19,5.1.011,6.462.222,1.505,1.854,2.926,3.343,3.118,2.788.359,5.207-.425,5.486-3.538.137-1.532.175-4.973-.016-6.457-.174-1.346-1.382-2.806-2.721-3.094-.405-.087-1.666-.249-2.054-.213ZM124.477,249.317h-4.415c-.065,0-.405-.354-.323-.537,1.34-1.619,3.85-2.328,4.631-4.415.669-1.786-.168-3.76-1.896-4.569-2.105-.986-4.522-.129-6.603.484-.045.298-.043.574.098.853.101.2.989,1.388,1.186,1.613.168.193.345.386.562.528.345.075,1.881-1.574,3.102-.961.192.096.44.417.44.649,0,.618-2.958,2.61-3.571,3.333-1.381,1.626-1.46,3.279-1.827,5.293-.057.18.249.527.325.527h8.506l-.215-2.8ZM149.134,239.409h-4.307c-.543,0-.256,2.505-.324,3.016h1.723s0,9.584,0,9.584c0,.607,1.297.118,1.608.101.608-.035,1.231.038,1.838.008l-.211-12.175c.007-.186-.182-.495-.328-.533Z" fill="#fff"/>
  <path d="M178.477,44.541c1.052.966.877.596,1.979,1.141,9.282,4.587,20.736,14.677,27.36,22.604,33.261,39.801,31.217,98.224-5.809,134.836-41.428,40.966-109.116,37.339-146.008-7.545-33.987-41.348-29.29-100.326,9.684-136.558,27.89-25.928,69.499-32.987,104.662-18.301,1.221.51,7.533,3.272,8.132,3.823ZM64.669,202.09c34.595,34.129,90.069,36.675,127.965,6.305,43.88-35.165,48.88-100.074,10.873-141.615-39.72-43.414-108.278-41.583-145.788,3.66-32.325,38.988-28.89,96.292,6.95,131.65Z" fill="#b40a0c"/>
  <path d="M68.487,225.839c-.361-2.292-.542-4.563-.43-6.893,1.027-.213.736.249,1.173.655.387.36,1.105.698,1.519,1.068,2.012,1.801,3.688,4.012,3.969,6.8.124,1.231-.151,2.698.01,3.867.025.179.045.33.211.435l3.239.744c-.355-2.221-1.45-4.356-1.291-6.676.264-.263,2.983,1.314,3.435,1.625.871.6,2.572,2.061,3.122,2.909,1.284,1.984,1.703,4.561,1.841,6.881,1.233-.005,2.458-.078,3.661.214.089-.357-.078-.504-.207-.762-.899-1.796-2.101-3.631-2.161-5.699,4.36.947,7.724,2.714,9.426,7.048.313.796.451,1.774.731,2.499.063.162.143.273.302.351.888-.237,1.958-.295,2.891-.314.25-.005.377.222.645-.215-1.041-1.624-2.378-3.216-3.236-4.947-.127-.256-.298-.403-.207-.761,5.569-.392,10.924,3.18,11.843,8.83-1.139-.103-2.601-.43-3.729-.176-.143.032-2.15,1.234-2.302,1.368-.167.147-.136.43-.363.532-.436.197-2.697.79-3.201.847-2.875.327-4.886-.458-7.417-1.601-.804-.363-.886-.51-.148-1.012.68-.462,2.032-1.003,2.523-1.569.56-.645-.623-1.043-1.145-.946-.833.154-2.222,1.084-3.166,1.373-2.351.719-4.129.631-6.395-.282-1.55-.625-2.864-1.718-4.373-2.412-.062-.335.075-.469.362-.606.454-.216,3.183-.991,3.281-1.134v-.824c-1.445-.717-2.819.24-4.195.398-4.351.5-7.165-1.422-10.211-4.191l-.22-.748,3.877-.648c.151-.727-.78-1.418-1.436-1.454-.265-.015-.534.165-.819.168-2.042.025-3.848.1-5.771-.702-1.877-.783-3.691-2.532-4.896-4.15-.173-.233-1.043-1.44-.86-1.615l4.091-.216c.001-1.724-2.53-1.282-3.759-1.516-2.397-.457-5.045-2.369-6.456-4.312-.486-.669-1.879-2.859-2.045-3.557-.093-.391.007-.294.306-.307,3.23-.136,6.052,1.392,8.794,2.838.201.106.29.247.576.177.068-2.1.409-4.197.863-6.246.168.01.367-.033.518.021.215.076,1.699,1.626,1.944,1.933,2.212,2.764,3.123,6.251,2.223,9.734-.144.556-.764,1.201-.167,1.779l3.233,1.396Z" fill="#b40a0c"/>
  <path d="M156.133,243.501c.407-2.542,2.378-5.592,4.586-6.936s4.518-1.592,7.042-1.894c.201.199-.457,1.376-.605,1.656-.744,1.412-1.713,2.743-2.623,4.052l.529.329,2.896.191c.971-5.386,4.3-8.187,9.486-9.358.19-.043.568-.26.652.006-.498,1.068-.719,2.259-1.184,3.339-.222.517-1.477,2.491-1.184,2.8,1.112-.361,2.292-.177,3.446-.214-.281-3.864,1.728-7.707,4.963-9.79.468-.301,3.143-1.713,3.434-1.411-.029,1.149-.238,2.364-.49,3.495-.223,1.005-.589,1.964-.802,2.967l3.22-.656c.05-2.203-.232-4.288.615-6.384,1.021-2.528,3.258-4.249,5.318-5.881.45-.052.282.02.313.328.047.464.201.872.23,1.28.122,1.7-.3,3.189-.437,4.852.132.132,3.2-1.066,3.35-1.283.129-.187.098-.3.064-.501-.172-1.004-.742-2.137-.836-3.271-.304-3.644,2.068-7.04,4.636-9.373.314.191.269.445.35.725.529,1.847.683,3.821.62,5.734l3.445-1.83c1.947-.678,3.953-1.353,6.029-1.4.41.401-1.545,3.481-1.937,3.984-1.266,1.625-2.953,3.045-4.95,3.664-1.345.417-3.178.381-4.315.853-.268.111-.735.408-.855.653-.208.424.349.319.536.322,1.297.021,2.484.246,3.77.216.181.173-.685,1.387-.861,1.615-2.203,2.867-4.795,4.635-8.496,4.855-1.484.088-3.274-.806-4.21.851l4.091.863c.098.412-.146.417-.359.609-2.68,2.423-5.247,4.726-9.209,4.329-1.063-.106-3.891-1.264-4.644-.63-.029.342-.052.5.215.753.487.462,3.452.936,3.23,1.72-.051.181-2.738,1.824-3.15,2.02-2.813,1.339-5.173,1.505-8.106.41-.934-.348-2.222-1.326-3.257-1.006-.996.307.658,1.391,1.087,1.669.626.406,1.59.629,2.014,1.323-.725.132-1.247.657-1.939.969-3.932,1.769-7.357,1.565-10.874-.968-.175-.126-.579-.646-.646-.646h-4.199Z" fill="#b40a0c"/>
  <path d="M71.072,38.026c-.067.316.121.469.258.71.761,1.346,1.708,2.622,2.532,3.933.114.506-.812.571-1.148.768-.44.257-.657.878-1.209.835l-6.893-11.09c.369-.283,2.26-1.73,2.576-1.397.561,1.205,1.423,2.836,2.282,3.858.211.252.351.521.74.443l.457-6.543c.041-.132,1.922-1.451,2.231-1.646.269-.17.391-.287.758-.21.123.563-.181,1.073-.221,1.608-.118,1.582-.119,3.165-.201,4.752-.027.509-.394.883-.122,1.399.224.425,4.097,1.969,4.853,2.255.389.147.981.424,1.38.311.743-.212.144-1.756.12-2.242-.172-3.542.143-7.22.005-10.778l.105-.326,1.763-1.046,11.053,9.13c.149.491-.759.561-1.014.706-.518.294-.97.862-1.643.667-.507-.147-.502-.957-1.532-.838-.429.05-3.12,1.379-3.71,1.684-.619.32-1.25.804-1.907,1.108l-.122,1.601c-.081.274-1.434.719-1.847.952-.812.459-2.533,1.917-3.363,1.732-1.608-.692-3.25-1.405-4.889-2.014-.416-.155-.83-.358-1.291-.323ZM82.485,28.548v4.092c1.04-.105,1.977-.832,2.953-1.25.215-.092.353.047.284-.368-.08-.484-1.949-1.86-2.475-2.267-.27-.208-.416-.255-.762-.207Z" fill="#262221"/>
  <path d="M242.055,137.101c-.008,1.655-.446,3.393-.219,5.067.023.173.051.333.208.438,3.347.045,6.602.847,9.918,1.173.05.976-.068,1.942-.217,2.907-.04.259-.096.407-.34.533l-7.951-1.301c-2.139.167-3.641,1.705-2.521,3.83.884,1.678,3.269,1.329,4.878,1.582.856.135,4.411.647,4.862.952.158.107.232.245.226.436l-.457,2.68c-.454.021-.919.041-1.375-.002-2.119-.2-5.889-.764-7.877-1.383-4.018-1.252-5.332-6.278-2.581-9.48.795-.925,1.842-1.252,2.799-1.939l-2.811-.203-.179-.252c-.247-.935.165-1.941.198-2.769.077-1.944-.251-4.007.412-5.834.623-.333,1.246.096,1.836.126,3.303.168,6.652.042,9.926.411.475.054,1.706-.165,1.809.351.029.145-.2.541-.215.84-.027.531.214,2.147-.33,2.26l-9.999-.423Z" fill="#262221"/>
  <path d="M191.449,34.58c.239.004.478.021.715-.04,1.752-.446,3.856-1.779,5.645-2.329.871-.117,2.725.599,2.084,1.659-.974,1.147-6.031,10.431-6.631,10.607-.13.038-.253.022-.38-.017-.102-.031-1.777-.987-1.838-1.075-.089-.129-.022-.349-.029-.511l3.231-5.605c-.32-.429-.278-.23-.581-.155-.953.235-3.622,1.746-4.379,1.242-.682-.454-.772-3.924-.851-4.856-.24.031-.522-.126-.653.136-.919,1.843-2.218,3.561-3.213,5.368-.634.45-1.756-1.217-2.595-.981-.029-.239.008-.436.093-.661.319-.84,1.558-2.594,2.099-3.5,1.263-2.114,2.77-4.873,4.17-6.814.174-.242.422-.465.662-.643l1.781,1.199.672,6.976Z" fill="#262221"/>
  <path d="M32.955,95.102c.476.066.346.017.473-.278.618-1.434,1.184-1.907,2.86-1.654,2.744.414,1.963,4.057.767,5.715-.42.297-1.219-.308-1.714-.352-.147-.95.478-1.738.619-2.688.038-.255.073-.727-.311-.526-.585.306-.718,2.155-.974,2.797-.965.085-2.261-.983-3.117-.868-.436.058-.964.813-1.467,1.129-.312.196-2.115,1.026-2.303.819l-.415-3c.961-.077,2.044-1.149,2.401-2.014.772-1.873-.702-3.297-2.085-1.44-1.012,1.359-1.383,2.735-3.128,3.548-2.847,1.326-5.937-1.44-5.832-4.308.071-1.937,2.222-4.917,4.202-5.286l.962,2.458c-.459.705-1.697,1.403-1.879,2.221-.194.873-.142,1.823.817,2.135,1.141.371,2.321-2.389,2.926-3.129,1.767-2.163,4.762-2.393,6.437-.005.145.207.763,1.486.763,1.606v3.123Z" fill="#262221"/>
  <path d="M13.633,129.504c-.422-.422-1.023-1.711-1.243-2.31-.66-1.789-.765-3.255-.115-5.069,2.403-6.7,12.195-6.01,13.693.75,1.589,7.169-7.244,11.72-12.334,6.629ZM18.036,120.564c-.799.143-1.947,1.032-2.407,1.685-2.554,3.63,2.073,8.051,5.689,5.474,3.507-2.499,1.107-7.947-3.282-7.16Z" fill="#262221"/>
  <path d="M244.586,117.556c4.702-.559,8.201,3.464,7.812,8.029-.461,5.411-7.227,8.217-11.425,4.738-4.997-4.142-2.78-12.006,3.613-12.766ZM244.578,120.565c-1.524.276-3.524,2.547-3.381,4.133.203,2.245,2.531,4.346,4.837,3.998,1.292-.195,3.059-1.858,3.295-3.164.505-2.792-1.903-5.483-4.751-4.967Z" fill="#262221"/>
  <path d="M248.727,102.858l1.31,6.781c-.515,4.536-4.619,7.674-9.118,6.09-4.558-1.605-4.407-6.28-5.323-10.287l13.131-2.585ZM245.016,106.572l-5.664,1.225c-.253,1.844.962,4.875,3.032,5.176,1.81.264,2.929-.131,3.947-1.642.881-1.307.716-2.555.192-4.006-.342-.947-.536-.876-1.507-.754Z" fill="#262221"/>
  <path d="M59.386,37.43c7.18-1.003,11.176,7.962,5.763,12.441-4.011,3.319-10.111,1.421-11.473-3.602-1.05-3.874,1.687-8.277,5.71-8.839ZM60.252,40.219c-1.533.141-3.513,1.815-3.777,3.344-.619,3.588,3.378,6.492,6.399,4.247,1.879-1.396,2.394-3.79,1.06-5.769-.67-.993-2.496-1.931-3.681-1.822Z" fill="#262221"/>
  <path d="M94.329,24.887c-.43.473,2.215,6.598,1.935,6.887l-2.796.867c.022-.226-.034-.437-.099-.651-1.041-3.453-3.055-7.771-3.731-11.134-.061-.303-.077-.609-.037-.914l2.216-.635,6.487,4.728.763.205c.324-.332-1.756-5.664-1.925-6.551l2.465-1.2,4.414,12.594-2.443.953c-1.99-1.594-4.069-3.175-6.188-4.595-.195-.131-.917-.712-1.06-.554Z" fill="#262221"/>
  <path d="M18.967,168.772c.253-.251,2.506.791,2.694,1.058.316.448-.33,1.016-.352,1.625-.073,2.022,1.887,4.069,3.833,4.374,2.1.328,4.684-2.233,4.597-4.373-.061-1.506-1.372-3.786-3.113-2.669-1.025.657.478,1.76.29,2.435-.115.414-2.065.684-2.47,1.192-.308-.002-2.008-4.648-2.044-5.373,1.706-.239,3.68-1.627,5.323-1.898,1.217-.2,2.786,1.305,3.507,2.22,3.187,4.044.539,10.799-4.623,11.314-5.89.588-9.452-4.446-7.642-9.905Z" fill="#262221"/>
  <path d="M180.035,36.733c-.25.251-2.486-1.048-2.917-1.282-.408-1.329.149-2.753-1.235-3.503-1.699-.92-1.466.34-2.046,1.494-.573,1.142-1.537-.306-2.499-.393l-.334-.324,5.281-12.138c3.191,1.454,6.985,2.094,7.575,6.182.235,1.627-.679,3.803-1.991,4.799-.464.352-1.912.843-2.022,1.208-.203,1.349.336,2.61.188,3.958ZM178.017,24.696c-.42.084-1.908,3.324-1.871,3.743.05.561,1.545,1.121,2.073,1.179,1.079.119,1.981-.473,2.411-1.445.828-1.877-.972-3.086-2.612-3.476Z" fill="#262221"/>
  <path d="M234.303,84.548l6.351-3.019c.461-.059.262.057.333.312.248.883.955,1.392.837,2.262-2.5,1.174-4.973,2.419-7.455,3.635-1.107.542-2.585,1.486-3.715,1.884-.226.08-.416.13-.658.096.049-.898-.891-1.506-.609-2.436l3.506-6.62.117-.852-.871.098-5.476,2.706-1.16-2.081-.027-.503,11.71-5.592c.27.078,1.261,1.796.956,2.21l-3.744,7.026-.095.874Z" fill="#262221"/>
  <path d="M45.43,69.703c.405.355-1.412,1.913-1.278,2.569l-.111.003c-.246.002-2.353-1.286-2.763-1.543-.325-.205-1.539-1.389-1.849-1.032-.464,1.35-1.91,2.634-2.491,3.867-.086.183-.154.284-.091.507.157.554,3.469,2.27,4.076,2.836l-1.415,2.268c-.393.04-.893-.292-1.238-.483-2.886-1.602-5.579-3.656-8.405-5.378-.527-.321-.865-.941-1.648-.83l.093-.661c.341-.264,1.185-2.127,1.31-2.141.362-.041.407.063.65.212.606.374,3.421,2.466,3.852,2.367l2.719-4.197-.105-.327-3.995-2.693,1.622-2.468,11.067,7.123Z" fill="#262221"/>
  <path d="M35.094,177.609c.212.864.909,1.455.621,2.424-1.192,2.193-2.526,4.573-3.451,6.886-.109.272-.236.476-.17.798l.798-.17,5.341-2.848.521.018.863,2.222-.338.32c-2.388,1.159-4.678,2.522-7.039,3.729-1.051.537-2.54,1.426-3.582,1.803-.21.076-.413.16-.64.079-.212-.75-1.035-1.369-.848-2.202l3.674-7.106.17-.798-.798.17-5.341,2.855-.406-.028-1.199-2.226,11.121-5.903.701-.023Z" fill="#262221"/>
  <path d="M170.13,32.209l-3.22-.655c-.058-.665.219-1.416-.447-1.814-1.745-.328-3.873-1.512-5.529-1.794-1.338-.227-.96.495-1.695,1.243l-3.107-.856c-.019-.244-.015-.425.103-.652.246-.471,1.871-1.795,2.38-2.358,1.939-2.144,3.747-4.469,5.7-6.576.264-.285,1.442-1.536,1.652-1.594.474-.131,2.189.449,2.182,1.207l1.981,13.849ZM165.607,22.517c-.822-.166-.892.527-1.291.971-.378.421-1.149.994-1.404,1.396-.165.261-.145.381.109.543.386.246,2.978.994,3.232.751l-.646-3.662Z" fill="#262221"/>
  <path d="M124.692,25.748c-.866-.198-2.75.841-3.343.221-.302-.316-.234-1.148-.662-1.278l-6.749.855c-.056,2.726-1.771,1.64-3.673,2.141-.007-.239-.022-.478.038-.715,1-3.918,3.185-8.345,3.965-12.207.058-.287-.125-.602-.1-.621.058-.042.248.002.329-.087.127-.14.161-.356.29-.469.471-.411,1.849-.529,2.26-.117l7.644,12.277ZM118.448,21.871c.29-.211-1.277-2.729-1.538-3.092-.182-.253-.243-.43-.615-.353-.219,1.338-1.178,2.492-1.077,3.876l3.231-.431Z" fill="#262221"/>
  <path d="M44.801,200.638c.152-.452.198-2.539.557-2.592,1.833-.282,2.945,1.265,4.278,1.958.262.136.41.289.763.205-.02-.964-.961-1.408-.859-2.461.252-2.612,2.82-2.895,4.521-1.093.197.209,1.305,1.585,1.305,1.723,0,.457-.929,1.128-1.387,1.168-.235-.049-1.325-1.698-1.854-2.032-.285-.18-.582-.006-.648.219-.103.353,1.939,1.991,1.71,2.774-.105.357-1.747,1.063-1.893,1.565-.266.912.237,2.02.193,2.991-.244,5.36-5.928,8.521-10.631,5.876-1.669-.939-3.153-3.123-3.362-5.036-.263-2.401.877-1.453,2.583-1.292.274.183.185.834.299,1.208.453,1.479,1.635,2.996,3.251,3.21,5.947.788,6.975-7.582,1.175-8.392Z" fill="#262221"/>
  <path d="M11.852,132.363c.1-.109,1.15.556,1.362.684.834.503,5.154,3.641,5.602,3.591l6.386-4.921c-.171,1.241.49,2.432.114,3.667-1.573,1.305-3.184,2.562-4.786,3.826-.16.126-.41-.047-.28.476h5.384v2.8s-13.223.627-13.223.627c-.65-.192-.226-2.386-.344-2.996,1.472-.254,2.927-.186,4.416-.215.183-.004.748.1.536-.322-.509-1.015-4.308-2.54-5.167-3.663v-3.554Z" fill="#262221"/>
  <path d="M205.446,54.179c-.326.082-.352-.07-.539-.214-.399-.306-2.085-1.631-2.023-2.013.074-.455.794-.855.207-1.556l-3.997-3.325c-1.252-1.229-1.362-.268-2.196-.025-.758.222-1.023-.641-1.362-.94-.384-.338-1.348-.405-1.288-1.187l13.018-6.038c.635.138,1.682.91,1.627,1.603l-3.447,13.695ZM205.015,43.41c-.894-.082-1.651.531-2.435.902-.535.254-1.44.202-1.217.919.99.548,1.565,1.871,2.787,1.837.087-.586,1.156-3.366.865-3.658Z" fill="#262221"/>
  <path d="M33.587,84.533l2.179-4.928c.251-.244,2.302.703,2.575.957.135.125.248.222.222.428l-3.67,7.651-12.059-5.601c-.193-.147.86-2.361,1.036-2.733.865-1.822,1.956-3.539,2.833-5.357l.299-.075c.475.474,2.31.682,2.3,1.376-.013.928-2.164,3.591-2.178,4.743-.009.745,1.303,1.403,1.749,1.089.567-.4,1.211-3.221,2.061-3.769.552.061,2.468.852,2.46,1.383-.013.865-1.989,3.168-1.713,4.072.196.393,1.658,1.014,1.905.763Z" fill="#262221"/>
  <path d="M245.685,94.641c-.021.029-.422.165-.622.343-2.913,2.597-5.679,5.6-8.49,8.312-.291.28-.403,1.038-1.079.848-.265-.074-.985-2.096-.991-2.475-.015-.904.909-.757,1.069-1.324.126-.446-.291-1.363-.456-1.856-.284-.848-1.329-4-1.777-4.469-.387-.405-1.098-.137-1.61-.221l-.871-3.005,14.285,1.543.258.172c.233.317.478,1.86.284,2.131ZM240.978,94.672c-1.382.068-2.694-.37-4.091-.215l.863,3.23c.244.028.426.016.65-.102.243-.128,1.97-1.924,2.256-2.267.181-.217.412-.277.322-.646Z" fill="#262221"/>
  <path d="M27.353,153.688c.035,1.124,2.297,8.217,1.927,8.599-3.299.739-6.546,1.796-9.843,2.54-.542.122-2.753.678-3.046.473l-1.943-7.643c-.409-1.677,1.694-1.053,2.786-1.602l1.398,5.608c.185.302.288.087.48.052.522-.096,1.021-.323,1.567-.277.315-.243-1.027-4.046-1.077-4.735l2.675-.635c.171.063.231.196.304.347.326.677.921,3.966,1.116,4.161l1.924-.439c.456-.393-1.318-5.072-1.067-6.02l2.797-.429Z" fill="#262221"/>
  <path d="M228.272,196.117l-2.581-1.297c-.085-.762.671-1.279,1.042-1.858.195-.304,1.103-1.74,1.121-1.911.068-.655-1.032-1.532-1.594-1.376-.423.118-2.751,3.965-2.945,4.717-.319.352-2.207-1.354-2.796-1.291.615-.87,4.23-7.389,4.652-7.519.243-.074.512-.046.729.093,3.049,1.996,6.304,3.719,9.332,5.743.525.351,1.512.756,1.116,1.466-.729.8-3.818,6.733-4.332,6.883-.462.134-2.468-1.07-2.466-1.603l2.794-4.711c-.327-.529-1.326-1.323-1.929-.898-.164.116-1.638,2.433-1.896,2.844-.138.22-.25.453-.25.72Z" fill="#262221"/>
  <path d="M213.845,51.809c.306.282,5.47-.77,6.321-.818.455.048,2.031,1.667,2.4,2.111.181.217.412.277.323.646l-7.94,1.104c-.367.256-1.165,5.937-1.382,6.911-.072.323-.028,1.147-.475,1.03l-2.275-2.695,1.088-6.35-1.4.86c-.485.41-2.066,2.255-2.397,2.352-.424.125-1.874-1.285-1.985-1.629-.062-.191-.042-.401-.043-.599l9.193-8.72c.677-.199,1.132.885,1.487,1.265.244.26.832.36.741.758-.037.163-2.029,2.072-2.36,2.38-.441.41-1.295.667-1.297,1.394Z" fill="#262221"/>
  <path d="M150.983,24.69c-.437.574.053,2.373-.576,2.554l-2.886-.422,2.385-13.116c.353-.25,4.084.5,4.773.681,4.611,1.217,6.187,6.549,2.301,9.517-1.969,1.504-3.731.912-5.997.787ZM152.599,17.145c-.272.079-.267.322-.338.53-.117.341-.675,3.239-.63,3.407.24.899,2.264.938,3.007.694,1.568-.514,2.023-3.029.498-3.969-.384-.237-2.158-.771-2.537-.661Z" fill="#262221"/>
  <path d="M223.91,74.262c-.102-.113-.353-.127-.561-.4-.953-1.25-1.777-2.809-2.662-4.123-.556-.519-1.508.255-2.115-.151l-1.498-2.485,6.366-1.065,1.266-.026,6.061-1.063c1.024-.092,1.815,1.369,1.561,2.222l-7.065,11.675c-.281.276-.464-.018-.652-.219-.213-.229-1.223-1.754-1.266-1.98-.142-.739,1.554-1.287.566-2.384ZM228.273,68.395c-1.497-.14-2.939.287-4.412.438-.292.03-.389-.13-.329.318.048.357,1.418,2.484,1.724,2.8,1.034,1.07,1.51-1.153,2.12-1.764l.898-1.793Z" fill="#262221"/>
  <path d="M128.943,239.246c2.648-.373,4.984,1.197,5.23,3.926.145,1.6.172,5.782-.392,7.158-1.537,3.751-8.063,2.796-8.449-1.115-.156-1.58-.155-4.894,0-6.474.196-1.999,1.693-3.225,3.611-3.495ZM128.605,249.279c.333.424,2.108.337,2.305-.312l.004-5.981c-.209-.707-2.368-.586-2.538,0,.135,1.19-.358,5.545.229,6.293Z" fill="#262221"/>
  <path d="M139.072,239.236c.388-.036,1.649.126,2.054.213,1.339.287,2.548,1.748,2.721,3.094.191,1.484.154,4.925.016,6.457-.279,3.112-2.699,3.897-5.486,3.538-1.489-.192-3.122-1.613-3.343-3.118-.201-1.362-.141-5.02-.011-6.462.212-2.352,1.784-3.512,4.049-3.721ZM138.259,242.963v6.354c1.475.36,2.474.58,2.594-1.176.079-1.162.115-3.194-.001-4.324-.19-1.844-2.393-1.569-2.592-.853Z" fill="#262221"/>
  <path d="M233.01,175.44l.192,2.884c-.79.631-1.663.579-2.312,1.564s-.836,1.824-.226,2.852c1.606.425,1.946-1.072,2.776-2.024,1.553-1.78,3.835-3.041,6.021-1.498,3.644,2.573,1.309,8.655-2.79,9.146l-.655-2.683c1.128-.494,2.22-1.282,2.368-2.607.082-.728-.345-1.69-1.142-1.571-1.253.187-2.863,3.324-4.512,4.104-2.073.981-4.452-.411-5.165-2.46-.498-1.434-.383-2.219.168-3.614.96-2.43,2.791-3.558,5.275-4.092Z" fill="#262221"/>
  <path d="M221.814,198.271c-1.563-.214-3.989,1.383-3.624,3.081.091.424.535.93.966.977.536.059,2.73-2.178,3.582-2.595,2.449-1.199,4.937-.451,5.861,2.196,1.189,3.407-2.167,6.797-5.494,6.895l-.012-2.679c.516-.26,1.28-.53,1.73-.879.915-.708,1.684-2.797.067-3.09-.906-.164-3.013,2.135-4.003,2.6-3.788,1.779-6.999-2.139-5.287-5.718,1.087-2.272,3-3.516,5.473-3.794,1.785-.201.423,1.935.74,3.007Z" fill="#262221"/>
  <path d="M37.454,192.696c.433.548,1.586,3.073,1.951,3.324.569.391,2.238-.457,2.172-1.293-.075-.949-2.801-3.845-2.82-4.534-.01-.39,1.676-1.481,2.029-1.383.457.127,4.072,6.115,4.659,6.977l-10.05,6.754-.8.241-4.654-6.98,2.254-1.407c.998,1.314,1.762,3.046,2.82,4.294.097.114.183.272.308.35.386.24,2.028-.798,1.952-1.516-.085-.797-2.192-2.589-2.152-3.642.427-.384,1.776-1.576,2.333-1.184Z" fill="#262221"/>
  <path d="M124.477,249.317l.215,2.8h-8.506c-.076,0-.382-.347-.325-.527.367-2.014.446-3.667,1.827-5.293.614-.723,3.572-2.714,3.571-3.333,0-.232-.248-.552-.44-.649-1.221-.613-2.756,1.036-3.102.961-.216-.142-.393-.335-.562-.528-.197-.225-1.085-1.413-1.186-1.613-.141-.279-.142-.555-.098-.853,2.081-.613,4.498-1.47,6.603-.484,1.728.809,2.564,2.782,1.896,4.569-.781,2.087-3.291,2.796-4.631,4.415-.083.183.258.537.323.537h4.415Z" fill="#262221"/>
  <path d="M28.003,110.395l-.862,3.016-4.831-1.078c-2.735.677-5.744,2.213-8.458,2.754-.308.061-.613.06-.923.045l.687-3.404,5.126-1.874-4.077-3.681c.061-.39.281-.724.363-1.11.166-.778.131-2.858,1.247-2,1.252.962,2.268,2.195,3.436,3.24.839.75,2.385,2.285,3.258,2.772.885.494,4.72,1.013,5.034,1.32Z" fill="#262221"/>
  <path d="M132.875,12.179c1.324.042,2.665-.055,3.991-.007.368.013.695.212,1.063.229,1.476.068,2.973-.184,4.41.22l-.204,3.004h-3.23l-.431,10.123h-3.015l.406-10.206-.179-.252-2.811-.096v-3.015Z" fill="#262221"/>
  <path d="M248.086,164.456c.119.095-.73,2.828-.852,2.92-.101.075-.19.131-.322.098l-9.464-2.793c-.176.06-.235.198-.309.35-.623,1.286-.92,3.195-1.346,4.576-.315.221-2.846-.323-2.977-.758-.152-.504.53-2.44.73-3.105.461-1.534,1.124-3.009,1.44-4.59l.307-.341,12.794,3.643Z" fill="#262221"/>
  <path d="M128.568,22.518h5.276c.554,0,.248,2.7.323,3.231h-8.614l-.431-13.354c.705.073,2.973-.673,3.206.132l.24,9.991Z" fill="#262221"/>
  <path d="M40.134,55.104c1.055-1.337,2.687-3.052,3.906-4.377.349-.38,1.216-1.41,1.699-1.269.271.08,1.432,1.373,1.856,1.612-.08.645-2.001,2.211-1.926,2.55,1.183,1.107,2.343,2.275,3.544,3.359.67.605,1.605,1.214,2.267,1.824.315.291,1.768,1.661,1.709,1.924l-2.018,1.843-7.371-6.435c-.823-.247-1.83,1.94-2.34,1.933-.132-.002-1.999-1.516-2.037-1.643-.103-.351.45-.992.71-1.321Z" fill="#262221"/>
  <path d="M25.845,143.782l1.287,8.059-.199.238-11.326,1.81c-.466-.03-1.681.192-1.937-.19l-.093-2.593,9.885-1.53c.154-1.884-.337-3.734-.628-5.581l3.011-.213Z" fill="#262221"/>
  <path d="M149.134,239.409c.146.038.335.348.328.533l.211,12.175c-.607.03-1.23-.042-1.838-.008-.311.018-1.608.507-1.608-.101v-9.585h-1.723c.068-.511-.22-3.015.324-3.015h4.307Z" fill="#262221"/>
  <path d="M244.844,174.589c.314.322-.93,2.389-.86,2.996-.263.256-3.74-1.104-4.357-1.332-2.872-1.062-5.692-2.308-8.549-3.405-.02-.102-.023-.206-.011-.311.019-.17.862-2.319.97-2.484.102-.155.234-.239.426-.218l12.38,4.754Z" fill="#262221"/>
  <path d="M145.366,26.395c-.508-.023-2.954.145-3.025-.344.006-.348-.012-.697.024-1.044.337-3.31.88-6.629,1.265-9.933.046-.392-.075-2.23.355-2.26.614.392,2.722-.041,2.881.568l-1.5,13.013Z" fill="#262221"/>
  <path d="M48.649,65.403c.477.693-1.252,1.766-1.279,2.547l-.5-.009-9.715-7.516c-.176-.196-.596-.442-.529-.733.054-.239,1.714-2.126,2.017-2.059l10.006,7.771Z" fill="#262221"/>
  <path d="M220.72,214.195c-.232.27-1.331-.625-1.6-.846-2.204-1.819-4.336-4.097-6.459-6.032-.55-.501-1.34-1.043-1.95-1.497-.184-.221-.117-.428.005-.662.053-.102,1.477-1.53,1.617-1.619.173-.111.272-.161.438,0l9.155,8.513c.445.847-1.134,1.298-1.207,2.144Z" fill="#262221"/>
  <path d="M244.424,178.024l1.293-3.015c.815.36,2.383.436,2.118,1.576-.05.215-.923,1.913-1.032,1.989-.602.414-1.678-.56-2.38-.55Z" fill="#262221"/>
  <path d="M10.345,124.178l-.096,3.028c-.294.442-1.794.168-2.257-.027l.199-3.001h2.155Z" fill="#262221"/>
  <path d="M35.959,59.126c-.157.197-1.775-.876-1.91-1.203-.071-.342,1.655-2.522,2.009-2.443l1.412,1.587-1.51,2.06Z" fill="#262221"/>
  <path d="M10.775,120.301l-.215,3.016c-.569-.095-1.712.181-2.161-.101-.383-.241-.005-.702.015-1.077.032-.609-.037-1.23-.008-1.838h2.37Z" fill="#262221"/>
  <path d="M222.401,213.936c.205-.195.298-.858.777-.781s1.091.822,1.426,1.182l-1.624,2.018c-.463.135-1.478-.708-1.572-1.219-.137-.745.649-.873.993-1.2Z" fill="#262221"/>
  <path d="M64.669,202.09c-35.84-35.358-39.274-92.662-6.95-131.65,37.511-45.243,106.068-47.074,145.788-3.66,38.006,41.541,33.007,106.45-10.873,141.615-37.897,30.37-93.371,27.824-127.965-6.305ZM184.126,99.194c-.282-3.737-.939-7.49-2.202-11.043-10.202-28.707-46.129-39.026-72.672-27.122-35.06,15.724-47.942,61.343-37.647,96.322,5.387,18.302,17.291,32.569,34.203,41.391,17.34,9.045,34.216,9.736,51.981,1.293,2.704-1.285,5.287-2.889,7.963-4.08.59-.263,1.41-.897,2.008-1.241.066-.475-.105-.337-.447-.232-1.622.499-3.133,1.504-4.82,2.072-10.276,3.458-26.235,5.063-36.675,2.205-18.19-4.981-32.559-20.63-38.762-37.907-7.85-21.863-4.769-48.729,8.904-67.458,12.036-16.485,31.274-25.808,51.822-21.711,13.384,2.669,24.985,11.402,32.776,22.357l3.569,5.152ZM179.174,166.825h-47.268c-10.473-1.642-17.365-9.67-21.816-18.457-2.116-4.178-3.502-8.205-3.924-12.875-1.143-12.652,3.926-26.478,13.568-34.904,7.164-6.261,16.853-6.264,24.918-1.65l2.436,1.547c-1.473-4.445-4.869-7.572-9.201-9.212-17.716-6.706-33.167,9.66-38.772,24.877-3.949,10.721-4.525,20.355-2.149,31.559,3.873,18.264,14.221,33.149,33.06,37.795,17.903,4.415,34.093-1.982,46.247-15.229l2.902-3.452ZM159.362,117.717c-1.364.354-2.714,1.707-3.539,2.814-2.341,3.14-1.821,5.083-.237,8.395,2.825,5.907,7.058,9.1,5.918,16.456-.814,5.251-4.786,8.567-6.77,13.259-.786,1.858-1.263,3.831-1.615,5.815.257.252,2.403-.53,2.858-.695,2.759-.999,5.726-2.675,8.108-4.383,7.445-5.335,12.436-15.777,5.616-23.677-2.192-2.539-5.813-4.843-6.031-8.507-.988.648-2.5,1.928-3.447.756-1.449-1.796-.768-5.775-.635-7.961.049-.809-.077-1.493-.225-2.272ZM149.427,164.64c1.664-3.135,3.592-6.154,5.239-9.298,3.205-6.12,7.493-15.54.167-20.495-.519-.351-2.144-1.237-2.687-1.405-.374-.116-.311.054-.32.319-.066,1.931-1.596,4.952-2.543,6.72-3.205,5.98-9.762,12.337-7.905,19.671.393,1.551,1.144,3.096,2.042,4.42l6.008.069ZM171.422,164.671h7.214c.326-.365.521-.964.705-1.449,1.168-3.083,1.743-6.127,1.328-9.415-.39-3.092-1.872-6.838-3.863-9.275-.388-.475-1.045-1.146-1.614-1.401l.113,2.054c-.403,1.631-.181,4.091-1.074,5.566-.096.158-.329.104-.445.273-.404.59-.669,1.658-1.103,2.307-2.176,3.257-7.134,5.412-9.75,9.202-.451.654-.799,1.348-1.198,2.031.381.533,1.022.261,1.6.335,5.458.701,6.889-.898,10.241-4.644l2.476-2.693c.505.821-.22.815-.331.995-.955,1.552-1.746,3.256-3.222,4.497l-1.076,1.616ZM159.578,186.426c-.142-.125-.824.292-1.009.39-4.637,2.467-9.716,4.454-15.028,4.785-4.97.31-17.954-1.513-22.155-4.131-.361-.225-1.714-1.57-2.078-1.26.32.349.554.852.854,1.195,6.661,7.604,15.616,11.912,25.852,8.823,1.334-.402,2.821-1.169,3.881-1.519.358-.118,1.971-1.137,2.431-1.43,2.543-1.62,4.939-3.751,6.824-6.098.11-.137.47-.719.428-.756Z" fill="#fff"/>
  <path d="M82.485,28.548c.346-.048.492-.001.762.207.526.406,2.395,1.783,2.475,2.267.069.415-.069.276-.284.368-.976.419-1.912,1.146-2.953,1.25v-4.092Z" fill="#fff"/>
  <path d="M18.036,120.564c4.389-.787,6.789,4.66,3.282,7.16-3.616,2.577-8.243-1.844-5.689-5.474.46-.654,1.608-1.542,2.407-1.685Z" fill="#fff"/>
  <path d="M244.578,120.565c2.849-.516,5.257,2.175,4.751,4.967-.236,1.306-2.003,2.969-3.295,3.164-2.306.348-4.634-1.753-4.837-3.998-.143-1.586,1.856-3.857,3.381-4.133Z" fill="#fff"/>
  <path d="M245.016,106.572c.97-.122,1.165-.194,1.507.754.523,1.451.688,2.699-.192,4.006-1.018,1.51-2.136,1.906-3.947,1.642-2.07-.302-3.285-3.332-3.032-5.176l5.664-1.225Z" fill="#fff"/>
  <path d="M60.252,40.219c1.185-.109,3.011.829,3.681,1.822,1.334,1.979.819,4.373-1.06,5.769-3.021,2.245-7.018-.659-6.399-4.247.264-1.529,2.245-3.203,3.777-3.344Z" fill="#fff"/>
  <path d="M178.017,24.696c1.64.39,3.44,1.599,2.612,3.476-.429.973-1.331,1.564-2.411,1.445-.528-.058-2.023-.618-2.073-1.179-.037-.419,1.452-3.658,1.871-3.743Z" fill="#fff"/>
  <path d="M165.607,22.517l.646,3.662c-.253.243-2.846-.506-3.232-.751-.254-.162-.274-.282-.109-.543.255-.402,1.026-.976,1.404-1.396.399-.444.468-1.137,1.291-.971Z" fill="#fff"/>
  <path d="M118.448,21.871l-3.231.431c-.101-1.384.858-2.539,1.077-3.876.372-.077.433.1.615.353.262.364,1.828,2.881,1.538,3.092Z" fill="#fff"/>
  <path d="M205.015,43.41c.291.292-.778,3.073-.865,3.658-1.222.034-1.797-1.288-2.787-1.837-.222-.718.682-.666,1.217-.919.783-.371,1.541-.984,2.435-.902Z" fill="#fff"/>
  <path d="M240.978,94.672c.09.369-.141.429-.322.646-.286.343-2.012,2.139-2.256,2.267-.224.118-.406.13-.65.102l-.863-3.23c1.397-.155,2.709.283,4.091.215Z" fill="#fff"/>
  <path d="M152.599,17.145c.379-.11,2.153.424,2.537.661,1.524.941,1.07,3.455-.498,3.969-.743.244-2.767.205-3.007-.694-.045-.167.513-3.066.63-3.407.071-.209.066-.451.338-.53Z" fill="#fff"/>
  <path d="M228.273,68.395l-.898,1.793c-.61.611-1.086,2.834-2.12,1.764-.306-.317-1.676-2.444-1.724-2.8-.06-.448.037-.288.329-.318,1.474-.151,2.915-.579,4.412-.438Z" fill="#fff"/>
  <path d="M128.605,249.279c-.587-.748-.094-5.103-.229-6.293.169-.585,2.329-.706,2.538,0l-.004,5.981c-.197.649-1.972.736-2.305.312Z" fill="#fff"/>
  <path d="M138.259,242.963c.199-.716,2.402-.99,2.592.853.117,1.131.081,3.162.001,4.324-.12,1.756-1.119,1.536-2.594,1.176v-6.354Z" fill="#fff"/>
  <path d="M184.126,99.194l-3.569-5.152c-7.791-10.955-19.392-19.688-32.776-22.357-20.548-4.097-39.787,5.225-51.822,21.711-13.673,18.729-16.755,45.594-8.904,67.458,6.204,17.277,20.572,32.926,38.762,37.907,10.44,2.859,26.4,1.253,36.675-2.205,1.687-.568,3.198-1.573,4.82-2.072.342-.105.513-.243.447.232-.598.344-1.417.978-2.008,1.241-2.676,1.191-5.259,2.794-7.963,4.08-17.764,8.443-34.64,7.752-51.981-1.293-16.912-8.821-28.816-23.088-34.203-41.391-10.295-34.979,2.588-80.598,37.647-96.322,26.543-11.904,62.469-1.585,72.672,27.122,1.263,3.553,1.92,7.305,2.202,11.043Z" fill="#b40a0c"/>
  <path d="M179.174,166.825l-2.902,3.452c-12.154,13.246-28.344,19.643-46.247,15.229-18.839-4.646-29.188-19.531-33.06-37.795-2.376-11.204-1.799-20.839,2.149-31.559,5.605-15.217,21.056-31.582,38.772-24.877,4.331,1.639,7.728,4.767,9.201,9.212l-2.436-1.547c-8.065-4.614-17.754-4.611-24.918,1.65-9.641,8.426-14.711,22.252-13.568,34.904.422,4.67,1.808,8.697,3.924,12.875,4.451,8.788,11.343,16.815,21.816,18.457h47.268Z" fill="#b40a0c"/>
  <path d="M159.362,117.717c.148.779.274,1.463.225,2.272-.133,2.186-.814,6.165.635,7.961.946,1.172,2.459-.108,3.447-.756.218,3.664,3.839,5.968,6.031,8.507,6.82,7.9,1.83,18.342-5.616,23.677-2.382,1.707-5.349,3.384-8.108,4.383-.454.164-2.6.947-2.858.695.352-1.984.829-3.956,1.615-5.815,1.985-4.692,5.957-8.008,6.77-13.259,1.14-7.356-3.093-10.549-5.918-16.456-1.584-3.312-2.104-5.255.237-8.395.825-1.106,2.176-2.46,3.539-2.814Z" fill="#b40a0c"/>
  <path d="M149.427,164.64l-6.008-.069c-.897-1.323-1.649-2.868-2.042-4.42-1.857-7.334,4.699-13.69,7.905-19.671.948-1.768,2.478-4.789,2.543-6.72.009-.265-.054-.434.32-.319.543.168,2.168,1.055,2.687,1.405,7.326,4.954,3.038,14.375-.167,20.495-1.647,3.144-3.575,6.163-5.239,9.298Z" fill="#b40a0c"/>
  <path d="M171.422,164.671l1.076-1.616c1.476-1.241,2.267-2.946,3.222-4.497.111-.18.836-.174.331-.995l-2.476,2.693c-3.352,3.746-4.783,5.345-10.241,4.644-.578-.074-1.219.198-1.6-.335.399-.683.747-1.377,1.198-2.031,2.616-3.79,7.574-5.945,9.75-9.202.433-.649.699-1.716,1.103-2.307.116-.169.349-.115.445-.273.893-1.475.671-3.935,1.074-5.566l-.113-2.054c.569.255,1.227.926,1.614,1.401,1.991,2.437,3.473,6.182,3.863,9.275.415,3.288-.16,6.332-1.328,9.415-.184.485-.379,1.084-.705,1.449h-7.214Z" fill="#b40a0c"/>
  <path d="M159.578,186.426c.042.037-.318.619-.428.756-1.885,2.346-4.281,4.478-6.824,6.098-.46.293-2.072,1.312-2.431,1.43-1.059.35-2.547,1.116-3.881,1.519-10.236,3.089-19.191-1.219-25.852-8.823-.3-.343-.535-.846-.854-1.195.364-.31,1.717,1.035,2.078,1.26,4.201,2.618,17.186,4.44,22.155,4.131,5.312-.331,10.391-2.318,15.028-4.785.185-.098.867-.515,1.009-.39Z" fill="#b40a0c"/>
  <g>
    <path d="M338.004,122.818c-3.966,0-7.65-.649-11.053-1.945-3.403-1.297-6.353-3.146-8.85-5.546-2.497-2.398-4.443-5.214-5.839-8.446-1.396-3.231-2.093-6.781-2.093-10.649s.698-7.418,2.093-10.649,3.353-6.046,5.875-8.446c2.521-2.398,5.483-4.247,8.887-5.545,3.402-1.296,7.087-1.946,11.053-1.946,4.455,0,8.494.771,12.118,2.313,3.623,1.542,6.658,3.808,9.107,6.794l-7.712,7.05c-1.714-2.007-3.66-3.525-5.838-4.553-2.179-1.028-4.542-1.542-7.087-1.542-2.399,0-4.603.404-6.61,1.212-2.008.808-3.746,1.946-5.214,3.415-1.469,1.469-2.607,3.208-3.415,5.214-.808,2.008-1.212,4.236-1.212,6.684s.404,4.676,1.212,6.683c.808,2.008,1.946,3.746,3.415,5.214,1.469,1.469,3.206,2.607,5.214,3.415,2.007.809,4.21,1.212,6.61,1.212,2.545,0,4.908-.525,7.087-1.579,2.178-1.052,4.125-2.582,5.838-4.59l7.712,7.051c-2.449,2.986-5.484,5.264-9.107,6.83-3.624,1.566-7.687,2.35-12.191,2.35ZM335.214,138.976c-1.274,0-2.51-.147-3.709-.44-1.2-.294-2.24-.687-3.122-1.176l1.763-4.847c.734.342,1.493.611,2.277.808.783.195,1.64.294,2.57.294,1.371,0,2.338-.221,2.901-.661.562-.44.845-1.004.845-1.689,0-.637-.283-1.15-.845-1.542-.563-.393-1.481-.588-2.754-.588h-2.497l1.91-7.785h6.096l-1.028,4.26c2.204.245,3.807.942,4.811,2.094,1.003,1.149,1.506,2.46,1.506,3.929,0,2.301-.98,4.101-2.938,5.398-1.958,1.297-4.553,1.946-7.785,1.946Z" fill="#b20802"/>
    <path d="M366.573,121.937v-51.411h38.852v9.548h-27.027v32.315h27.982v9.548h-39.807ZM377.517,100.492v-9.328h24.75v9.328h-24.75Z" fill="#b20802"/>
    <path d="M415.854,121.937v-51.411h9.842l30.332,37.016h-4.773v-37.016h11.75v51.411h-9.841l-30.332-37.016h4.773v37.016h-11.751Z" fill="#b20802"/>
    <path d="M500.02,122.818c-4.064,0-7.811-.649-11.237-1.945-3.428-1.297-6.39-3.146-8.887-5.546-2.497-2.398-4.443-5.214-5.839-8.446-1.395-3.231-2.093-6.781-2.093-10.649s.698-7.418,2.093-10.649c1.396-3.231,3.366-6.046,5.913-8.446,2.545-2.398,5.532-4.247,8.96-5.545,3.427-1.296,7.197-1.946,11.31-1.946,4.554,0,8.654.76,12.302,2.277,3.647,1.518,6.721,3.722,9.218,6.61l-7.564,7.051c-1.91-2.007-3.967-3.489-6.17-4.443s-4.627-1.432-7.271-1.432c-2.449,0-4.7.404-6.757,1.212-2.057.808-3.832,1.946-5.325,3.415-1.494,1.469-2.644,3.208-3.451,5.214-.809,2.008-1.212,4.236-1.212,6.684,0,2.35.403,4.542,1.212,6.573.808,2.032,1.957,3.782,3.451,5.251,1.493,1.469,3.256,2.62,5.288,3.452,2.031.833,4.271,1.248,6.721,1.248,2.35,0,4.638-.391,6.866-1.175,2.228-.782,4.395-2.081,6.5-3.893l6.757,8.593c-2.84,2.155-6.096,3.782-9.768,4.884-3.673,1.102-7.345,1.652-11.017,1.652ZM520.804,116.282l-10.869-1.615v-19.243h10.869v20.858Z" fill="#b20802"/>
    <path d="M531.82,121.937v-51.411h38.852v9.548h-27.027v32.315h27.982v9.548h-39.807ZM542.764,100.492v-9.328h24.75v9.328h-24.75Z" fill="#b20802"/>
    <path d="M581.101,121.937v-51.411h11.972v41.716h25.632v9.694h-37.604Z" fill="#b20802"/>
    <path d="M625.459,121.937v-51.411h11.824v51.411h-11.824ZM636.035,110.186l-.588-13.734,24.604-25.926h13.22l-22.106,23.869-6.757,7.051-8.372,8.74ZM660.639,121.937l-18.287-22.327,7.784-8.52,24.457,30.846h-13.954Z" fill="#b20802"/>
    <path d="M701.914,122.818c-4.064,0-7.81-.66-11.236-1.982-3.428-1.322-6.415-3.183-8.96-5.582-2.547-2.398-4.518-5.214-5.913-8.446-1.395-3.231-2.093-6.757-2.093-10.576,0-3.867.698-7.405,2.093-10.613,1.396-3.206,3.366-6.01,5.913-8.409,2.545-2.398,5.52-4.26,8.923-5.582,3.402-1.322,7.136-1.983,11.2-1.983s7.797.65,11.2,1.946c3.402,1.298,6.377,3.147,8.924,5.545,2.545,2.4,4.517,5.215,5.912,8.446s2.093,6.782,2.093,10.649c0,3.819-.697,7.357-2.093,10.612-1.396,3.257-3.367,6.084-5.912,8.482-2.547,2.4-5.521,4.249-8.924,5.546-3.403,1.296-7.112,1.945-11.127,1.945ZM701.841,112.757c2.301,0,4.418-.403,6.353-1.212,1.934-.808,3.636-1.958,5.104-3.452,1.469-1.493,2.607-3.231,3.415-5.214.809-1.983,1.212-4.198,1.212-6.646s-.403-4.664-1.212-6.647c-.808-1.983-1.946-3.72-3.415-5.214-1.469-1.493-3.171-2.644-5.104-3.452-1.935-.808-4.052-1.212-6.353-1.212s-4.432.404-6.39,1.212c-1.959.808-3.66,1.958-5.104,3.452-1.444,1.494-2.57,3.231-3.378,5.214-.809,1.983-1.212,4.199-1.212,6.647s.403,4.664,1.212,6.646c.808,1.983,1.934,3.722,3.378,5.214,1.444,1.494,3.146,2.644,5.104,3.452,1.958.809,4.088,1.212,6.39,1.212ZM694.35,65.973c-1.421,0-2.62-.465-3.599-1.396-.98-.93-1.469-2.154-1.469-3.672,0-1.469.488-2.681,1.469-3.635.979-.955,2.178-1.432,3.599-1.432s2.631.478,3.636,1.432c1.003.955,1.505,2.167,1.505,3.635,0,1.519-.502,2.743-1.505,3.672-1.005.931-2.216,1.396-3.636,1.396ZM709.332,65.973c-1.469,0-2.693-.465-3.672-1.396-.98-.93-1.469-2.154-1.469-3.672,0-1.469.488-2.681,1.469-3.635.979-.955,2.203-1.432,3.672-1.432,1.37,0,2.558.478,3.562,1.432,1.003.955,1.505,2.167,1.505,3.635,0,1.519-.502,2.743-1.505,3.672-1.005.931-2.192,1.396-3.562,1.396Z" fill="#b20802"/>
    <path d="M749.506,121.937v-21.005l2.718,7.197-22.694-37.603h12.706l17.332,28.79h-7.271l17.406-28.79h11.604l-22.547,37.603,2.718-7.197v21.005h-11.972Z" fill="#b20802"/>
    <path d="M824.123,122.818c-4.113,0-8.067-.551-11.861-1.652-3.795-1.102-6.843-2.533-9.144-4.296l4.039-8.96c2.154,1.568,4.749,2.853,7.785,3.856,3.035,1.004,6.096,1.506,9.181,1.506,2.35,0,4.247-.245,5.691-.734,1.443-.489,2.509-1.139,3.195-1.946.685-.808,1.028-1.75,1.028-2.828,0-1.37-.54-2.46-1.616-3.268-1.077-.808-2.51-1.469-4.297-1.983s-3.733-1.003-5.838-1.469c-2.106-.465-4.224-1.028-6.354-1.689s-4.089-1.542-5.875-2.644c-1.788-1.102-3.208-2.545-4.26-4.333-1.054-1.787-1.579-4.027-1.579-6.72,0-2.938.782-5.618,2.35-8.042,1.566-2.423,3.954-4.357,7.161-5.802,3.206-1.444,7.234-2.167,12.081-2.167,3.232,0,6.427.393,9.585,1.175,3.158.784,5.912,1.91,8.263,3.378l-3.746,8.96c-2.302-1.322-4.676-2.313-7.124-2.974-2.449-.661-4.799-.992-7.051-.992-2.35,0-4.235.257-5.655.771s-2.46,1.212-3.121,2.093-.991,1.861-.991,2.938c0,1.371.538,2.473,1.615,3.305,1.077.833,2.497,1.481,4.26,1.946,1.763.466,3.721.931,5.876,1.396,2.154.466,4.283,1.041,6.39,1.726,2.104.686,4.039,1.555,5.802,2.607,1.763,1.054,3.195,2.473,4.297,4.26,1.102,1.788,1.652,4.003,1.652,6.646,0,2.89-.797,5.534-2.387,7.932-1.592,2.399-4.003,4.333-7.234,5.802s-7.271,2.203-12.118,2.203ZM822.507,138.976c-1.273,0-2.51-.147-3.709-.44-1.2-.294-2.239-.687-3.121-1.176l1.763-4.847c.734.342,1.493.611,2.276.808.783.195,1.641.294,2.571.294,1.37,0,2.337-.221,2.9-.661.562-.44.845-1.004.845-1.689,0-.637-.282-1.15-.845-1.542-.563-.393-1.481-.588-2.754-.588h-2.497l1.909-7.785h6.096l-1.027,4.26c2.203.245,3.806.942,4.811,2.094,1.003,1.149,1.505,2.46,1.505,3.929,0,2.301-.979,4.101-2.938,5.398-1.959,1.297-4.554,1.946-7.785,1.946Z" fill="#b20802"/>
    <path d="M854.014,121.937v-51.411h38.852v9.548h-27.027v32.315h27.982v9.548h-39.807ZM864.957,100.492v-9.328h24.75v9.328h-24.75Z" fill="#b20802"/>
    <path d="M903.293,121.937v-51.411h11.972v51.411h-11.972ZM914.31,100.859v-10.062h25.118v10.062h-25.118ZM938.546,121.937v-51.411h11.897v51.411h-11.897Z" fill="#b20802"/>
    <path d="M968.585,65.9c-1.812,0-3.305-.575-4.48-1.726-1.175-1.15-1.763-2.607-1.763-4.37,0-1.811.588-3.305,1.763-4.48,1.176-1.175,2.668-1.763,4.48-1.763,1.763,0,3.243.587,4.443,1.763,1.199,1.175,1.799,2.669,1.799,4.48,0,1.763-.6,3.22-1.799,4.37-1.2,1.151-2.681,1.726-4.443,1.726ZM962.636,121.937v-51.411h11.972v51.411h-11.972Z" fill="#b20802"/>
    <path d="M997.373,121.937v-41.716h-16.451v-9.695h44.801v9.695h-16.452v41.716h-11.897Z" fill="#b20802"/>
    <path d="M1077.866,122.818c-4.064,0-7.81-.66-11.236-1.982-3.428-1.322-6.415-3.183-8.96-5.582-2.547-2.398-4.518-5.214-5.913-8.446-1.395-3.231-2.093-6.757-2.093-10.576,0-3.867.698-7.405,2.093-10.613,1.396-3.206,3.366-6.01,5.913-8.409,2.545-2.398,5.52-4.26,8.923-5.582,3.402-1.322,7.136-1.983,11.2-1.983s7.797.65,11.2,1.946c3.402,1.298,6.377,3.147,8.924,5.545,2.545,2.4,4.517,5.215,5.912,8.446s2.093,6.782,2.093,10.649c0,3.819-.697,7.357-2.093,10.612-1.396,3.257-3.367,6.084-5.912,8.482-2.547,2.4-5.521,4.249-8.924,5.546-3.403,1.296-7.112,1.945-11.127,1.945ZM1077.793,112.757c2.301,0,4.418-.403,6.353-1.212,1.934-.808,3.636-1.958,5.104-3.452,1.469-1.493,2.607-3.231,3.415-5.214.809-1.983,1.212-4.198,1.212-6.646s-.403-4.664-1.212-6.647c-.808-1.983-1.946-3.72-3.415-5.214-1.469-1.493-3.171-2.644-5.104-3.452-1.935-.808-4.052-1.212-6.353-1.212s-4.432.404-6.39,1.212c-1.959.808-3.66,1.958-5.104,3.452-1.444,1.494-2.57,3.231-3.378,5.214-.809,1.983-1.212,4.199-1.212,6.647s.403,4.664,1.212,6.646c.808,1.983,1.934,3.722,3.378,5.214,1.444,1.494,3.146,2.644,5.104,3.452,1.958.809,4.088,1.212,6.39,1.212Z" fill="#b20802"/>
    <path d="M1114.882,121.937v-51.411h11.824v51.411h-11.824ZM1125.458,110.186l-.588-13.734,24.604-25.926h13.22l-22.106,23.869-6.757,7.051-8.372,8.74ZM1150.062,121.937l-18.287-22.327,7.784-8.52,24.457,30.846h-13.954Z" fill="#b20802"/>
    <path d="M1160.196,121.937l22.841-51.411h11.751l23.062,51.411h-12.485l-18.875-45.388h4.773l-18.875,45.388h-12.191ZM1171.728,110.921l3.011-9.034h26.587l3.084,9.034h-32.682Z" fill="#b20802"/>
    <path d="M1223.21,121.937v-51.411h9.842l30.332,37.016h-4.773v-37.016h11.75v51.411h-9.841l-30.332-37.016h4.773v37.016h-11.751Z" fill="#b20802"/>
    <path d="M1296.579,121.937l22.841-51.411h11.751l23.062,51.411h-12.485l-18.875-45.388h4.773l-18.875,45.388h-12.191ZM1308.11,110.921l3.011-9.034h26.587l3.084,9.034h-32.682Z" fill="#b20802"/>
    <path d="M1359.594,121.937v-51.411h11.972v41.716h25.632v9.694h-37.604Z" fill="#b20802"/>
    <path d="M1409.094,121.937v-41.716h-16.451v-9.695h44.801v9.695h-16.452v41.716h-11.897Z" fill="#b20802"/>
    <path d="M1443.832,121.937v-51.411h11.972v51.411h-11.972Z" fill="#b20802"/>
    <path d="M1467.921,121.937v-51.411h22.254c4.602,0,8.567.747,11.897,2.24,3.329,1.494,5.899,3.635,7.712,6.426,1.811,2.791,2.717,6.096,2.717,9.915,0,3.868-.906,7.186-2.717,9.952-1.812,2.767-4.383,4.909-7.712,6.426-3.33,1.518-7.296,2.276-11.897,2.276h-15.718l5.436-5.361v19.536h-11.972ZM1479.893,103.723l-5.436-5.655h15.057c3.623,0,6.364-.783,8.226-2.35,1.86-1.566,2.791-3.77,2.791-6.61s-.931-5.031-2.791-6.573c-1.861-1.542-4.603-2.313-8.226-2.313h-15.057l5.436-5.655v29.157Z" fill="#b20802"/>
    <path d="M1511.619,121.937l22.841-51.411h11.751l23.062,51.411h-12.485l-18.875-45.388h4.773l-18.875,45.388h-12.191ZM1523.151,110.921l3.011-9.034h26.587l3.084,9.034h-32.682Z" fill="#b20802"/>
    <path d="M1574.634,121.937v-51.411h21.96c7.147,0,12.705,1.653,16.672,4.958,3.966,3.305,5.948,7.847,5.948,13.624,0,3.868-.906,7.186-2.717,9.952-1.812,2.767-4.383,4.872-7.712,6.316-3.33,1.445-7.296,2.167-11.897,2.167h-15.718l5.436-5.141v19.536h-11.972ZM1586.606,103.723l-5.436-5.655h15.057c3.623,0,6.364-.783,8.226-2.35,1.86-1.566,2.791-3.77,2.791-6.61s-.931-5.031-2.791-6.573c-1.861-1.542-4.603-2.313-8.226-2.313h-15.057l5.436-5.655v29.157ZM1607.39,121.937l-12.926-18.655h12.779l12.926,18.655h-12.779Z" fill="#b20802"/>
    <path d="M1628.613,121.937v-51.411h9.842l21.886,36.281h-5.214l21.445-36.281h9.915v51.411h-11.091l-.146-34.298h2.203l-17.332,28.791h-5.288l-17.554-28.791h2.424v34.298h-11.09Z" fill="#b20802"/>
    <path d="M1691.994,121.937l22.841-51.411h11.751l23.062,51.411h-12.485l-18.875-45.388h4.773l-18.875,45.388h-12.191ZM1703.526,110.921l3.011-9.034h26.587l3.084,9.034h-32.682Z" fill="#b20802"/>
    <path d="M1755.008,121.937v-51.411h11.824v51.411h-11.824ZM1765.584,110.186l-.588-13.734,24.604-25.926h13.22l-22.106,23.869-6.757,7.051-8.372,8.74ZM1790.188,121.937l-18.287-22.327,7.784-8.52,24.457,30.846h-13.954Z" fill="#b20802"/>
    <path d="M306.644,210.069l22.841-51.41h11.751l23.061,51.41h-12.485l-18.875-45.388h4.774l-18.875,45.388h-12.192ZM318.174,199.052l3.011-9.033h26.586l3.084,9.033h-32.682Z" fill="#b20802"/>
    <path d="M369.657,210.069v-51.41h9.842l30.332,37.016h-4.773v-37.016h11.75v51.41h-9.841l-30.332-37.016h4.773v37.016h-11.751Z" fill="#b20802"/>
    <path d="M422.243,210.069l22.841-51.41h11.751l23.062,51.41h-12.485l-18.875-45.388h4.773l-18.875,45.388h-12.191ZM433.775,199.052l3.011-9.033h26.587l3.084,9.033h-32.682Z" fill="#b20802"/>
    <path d="M485.257,210.069v-51.41h23.355c5.581,0,10.502,1.064,14.762,3.194s7.589,5.117,9.988,8.96c2.398,3.845,3.599,8.361,3.599,13.551s-1.2,9.707-3.599,13.55c-2.399,3.845-5.729,6.831-9.988,8.961s-9.181,3.194-14.762,3.194h-23.355ZM497.229,200.375h10.796c3.427,0,6.401-.648,8.924-1.946,2.521-1.297,4.479-3.158,5.875-5.582s2.093-5.251,2.093-8.482c0-3.28-.697-6.12-2.093-8.52-1.396-2.398-3.354-4.247-5.875-5.545-2.522-1.297-5.497-1.946-8.924-1.946h-10.796v32.021Z" fill="#b20802"/>
    <path d="M570.892,210.95c-4.064,0-7.81-.66-11.236-1.982-3.428-1.322-6.415-3.183-8.96-5.582-2.547-2.398-4.518-5.214-5.913-8.445-1.395-3.232-2.093-6.757-2.093-10.576,0-3.867.698-7.405,2.093-10.612,1.396-3.207,3.366-6.01,5.913-8.41,2.545-2.398,5.52-4.26,8.923-5.581,3.402-1.322,7.136-1.983,11.2-1.983s7.797.649,11.2,1.946c3.402,1.298,6.377,3.146,8.924,5.545,2.545,2.399,4.517,5.215,5.912,8.446s2.093,6.782,2.093,10.649c0,3.819-.697,7.356-2.093,10.612-1.396,3.257-3.367,6.084-5.912,8.482-2.547,2.4-5.521,4.249-8.924,5.546-3.403,1.296-7.112,1.945-11.127,1.945ZM570.818,200.888c2.301,0,4.418-.403,6.353-1.212,1.934-.808,3.636-1.957,5.104-3.451,1.469-1.493,2.607-3.231,3.415-5.215.809-1.983,1.212-4.198,1.212-6.646s-.403-4.664-1.212-6.646c-.808-1.983-1.946-3.721-3.415-5.215-1.469-1.493-3.171-2.644-5.104-3.452-1.935-.808-4.052-1.212-6.353-1.212s-4.432.404-6.39,1.212c-1.959.809-3.66,1.959-5.104,3.452-1.444,1.494-2.57,3.231-3.378,5.215-.809,1.982-1.212,4.198-1.212,6.646s.403,4.663,1.212,6.646c.808,1.983,1.934,3.722,3.378,5.215,1.444,1.494,3.146,2.644,5.104,3.451,1.958.809,4.088,1.212,6.39,1.212Z" fill="#b20802"/>
    <path d="M607.906,210.069v-51.41h11.972v41.716h25.632v9.694h-37.604Z" fill="#b20802"/>
    <path d="M674.446,210.95c-7.296,0-12.999-2.03-17.112-6.096-4.112-4.063-6.169-9.89-6.169-17.479v-28.716h11.971v28.422c0,4.848,1.004,8.361,3.012,10.54,2.007,2.179,4.798,3.268,8.372,3.268,3.623,0,6.438-1.089,8.446-3.268,2.007-2.179,3.012-5.692,3.012-10.54v-28.422h11.677v28.716c0,7.59-2.056,13.416-6.169,17.479-4.112,4.065-9.793,6.096-17.039,6.096Z" fill="#b20802"/>
    <path d="M730.263,210.069v-51.41h11.972v41.716h25.632v9.694h-37.604Z" fill="#b20802"/>
    <path d="M780.57,154.032c-1.812,0-3.305-.575-4.48-1.727-1.175-1.149-1.763-2.606-1.763-4.369,0-1.812.588-3.306,1.763-4.48,1.176-1.175,2.668-1.763,4.48-1.763,1.763,0,3.243.588,4.443,1.763,1.199,1.175,1.799,2.669,1.799,4.48,0,1.763-.6,3.22-1.799,4.369-1.2,1.151-2.681,1.727-4.443,1.727ZM774.621,210.069v-51.41h11.972v51.41h-11.972Z" fill="#b20802"/>
    <path d="M815.676,210.95c-4.113,0-8.067-.551-11.861-1.652-3.795-1.102-6.843-2.533-9.144-4.296l4.039-8.96c2.154,1.567,4.749,2.853,7.785,3.855,3.035,1.004,6.096,1.506,9.181,1.506,2.35,0,4.247-.245,5.691-.734,1.443-.489,2.509-1.139,3.195-1.946.685-.809,1.028-1.75,1.028-2.828,0-1.37-.54-2.46-1.616-3.268-1.077-.809-2.51-1.47-4.297-1.983s-3.733-1.003-5.838-1.469c-2.106-.465-4.224-1.028-6.354-1.689s-4.089-1.542-5.875-2.644c-1.788-1.102-3.208-2.546-4.26-4.333-1.054-1.787-1.579-4.027-1.579-6.721,0-2.938.782-5.618,2.35-8.042,1.566-2.424,3.954-4.357,7.161-5.802,3.206-1.444,7.234-2.167,12.081-2.167,3.232,0,6.427.393,9.585,1.175,3.158.784,5.912,1.91,8.263,3.379l-3.746,8.96c-2.302-1.322-4.676-2.313-7.124-2.975-2.449-.661-4.799-.991-7.051-.991-2.35,0-4.235.257-5.655.771-1.42.514-2.46,1.212-3.121,2.093-.661.882-.991,1.861-.991,2.938,0,1.372.538,2.474,1.615,3.306,1.077.833,2.497,1.481,4.26,1.946,1.763.466,3.721.931,5.876,1.395,2.154.467,4.283,1.041,6.39,1.727,2.104.686,4.039,1.555,5.802,2.607s3.195,2.473,4.297,4.26,1.652,4.002,1.652,6.646c0,2.89-.797,5.533-2.387,7.932-1.592,2.399-4.003,4.333-7.234,5.802s-7.271,2.203-12.118,2.203Z" fill="#b20802"/>
    <path d="M845.566,210.069v-51.41h38.852v9.547h-27.027v32.315h27.982v9.548h-39.807ZM856.509,188.624v-9.327h24.75v9.327h-24.75Z" fill="#b20802"/>
    <path d="M911.812,210.95c-4.113,0-8.067-.551-11.861-1.652-3.795-1.102-6.843-2.533-9.144-4.296l4.039-8.96c2.154,1.567,4.749,2.853,7.785,3.855,3.035,1.004,6.096,1.506,9.181,1.506,2.35,0,4.247-.245,5.691-.734,1.443-.489,2.509-1.139,3.195-1.946.685-.809,1.028-1.75,1.028-2.828,0-1.37-.54-2.46-1.616-3.268-1.077-.809-2.51-1.47-4.297-1.983s-3.733-1.003-5.838-1.469c-2.106-.465-4.224-1.028-6.354-1.689s-4.089-1.542-5.875-2.644c-1.788-1.102-3.208-2.546-4.26-4.333-1.054-1.787-1.579-4.027-1.579-6.721,0-2.938.782-5.618,2.35-8.042,1.566-2.424,3.954-4.357,7.161-5.802,3.206-1.444,7.234-2.167,12.081-2.167,3.232,0,6.427.393,9.585,1.175,3.158.784,5.912,1.91,8.263,3.379l-3.746,8.96c-2.302-1.322-4.676-2.313-7.124-2.975-2.449-.661-4.799-.991-7.051-.991-2.35,0-4.235.257-5.655.771-1.42.514-2.46,1.212-3.121,2.093-.661.882-.991,1.861-.991,2.938,0,1.372.538,2.474,1.615,3.306,1.077.833,2.497,1.481,4.26,1.946,1.763.466,3.721.931,5.876,1.395,2.154.467,4.283,1.041,6.39,1.727,2.104.686,4.039,1.555,5.802,2.607s3.195,2.473,4.297,4.26,1.652,4.002,1.652,6.646c0,2.89-.797,5.533-2.387,7.932-1.592,2.399-4.003,4.333-7.234,5.802s-7.271,2.203-12.118,2.203Z" fill="#b20802"/>
    <path d="M947.651,154.032c-1.812,0-3.305-.575-4.48-1.727-1.175-1.149-1.763-2.606-1.763-4.369,0-1.812.588-3.306,1.763-4.48,1.176-1.175,2.668-1.763,4.48-1.763,1.763,0,3.243.588,4.443,1.763,1.199,1.175,1.799,2.669,1.799,4.48,0,1.763-.6,3.22-1.799,4.369-1.2,1.151-2.681,1.727-4.443,1.727ZM941.701,210.069v-51.41h11.972v51.41h-11.972Z" fill="#b20802"/>
  </g>
  <g>
    <path d="M1838.255,201.531V60.153h39.99v141.379h-39.99ZM1875.216,146.394v-33.123h60.187v33.123h-60.187ZM1932.575,201.531V60.153h39.989v141.379h-39.989Z" fill="#b20802"/>
    <path d="M2066.076,204.359c-20.872,0-37.131-5.721-48.775-17.167-11.648-11.442-17.471-27.601-17.471-48.473V60.153h39.99v77.354c0,11.985,2.354,20.601,7.068,25.853,4.712,5.251,11.241,7.876,19.592,7.876s14.845-2.625,19.49-7.876c4.645-5.252,6.968-13.867,6.968-25.853V60.153h39.586v78.566c0,20.872-5.892,37.03-17.673,48.473-11.783,11.446-28.042,17.167-48.775,17.167Z" fill="#b20802"/>
    <path d="M2159.79,201.531V60.153h71.901c18.714,0,32.649,3.434,41.808,10.3,9.155,6.867,13.734,15.754,13.734,26.66,0,7.271-1.888,13.667-5.655,19.187-3.771,5.522-9.158,9.83-16.158,12.927-7.002,3.099-15.217,4.645-24.64,4.645l3.837-9.694c9.827,0,18.48,1.515,25.953,4.544,7.473,3.03,13.261,7.441,17.369,13.229,4.106,5.791,6.16,12.724,6.16,20.803,0,12.118-4.948,21.611-14.845,28.478-9.896,6.867-24.406,10.301-43.524,10.301h-75.94ZM2199.174,172.65h33.527c6.999,0,12.251-1.177,15.754-3.534,3.499-2.354,5.251-5.958,5.251-10.806s-1.752-8.448-5.251-10.806c-3.503-2.354-8.755-3.534-15.754-3.534h-36.354v-27.67h30.295c6.731,0,11.781-1.143,15.148-3.434,3.364-2.288,5.049-5.655,5.049-10.099,0-4.711-1.685-8.179-5.049-10.401-3.367-2.222-8.417-3.333-15.148-3.333h-27.468v83.615Z" fill="#b20802"/>
  </g>
</svg>